<?xml version="1.0" encoding="UTF-8" standalone="no"?>
<!DOCTYPE svg PUBLIC "-//W3C//DTD SVG 1.1//EN"
 "http://www.w3.org/Graphics/SVG/1.1/DTD/svg11.dtd">
<!-- Generated by graphviz version 2.36.0 (20140111.2315)
 -->
<!-- Title: pg_ddl Pages: 1 -->
<svg width="2508pt" height="1144pt"
 viewBox="0.00 0.00 2508.00 1144.27" xmlns="http://www.w3.org/2000/svg" xmlns:xlink="http://www.w3.org/1999/xlink">
<g id="graph0" class="graph" transform="scale(1 1) rotate(0) translate(4 1140.27)">
<title>pg_ddl</title>
<polygon fill="white" stroke="none" points="-4,4 -4,-1140.27 2504,-1140.27 2504,4 -4,4"/>
<!-- pg_ddlx_alter_owner(oid) -->
<g id="node1" class="node"><title>pg_ddlx_alter_owner(oid)</title>
<ellipse fill="none" stroke="black" cx="1714" cy="-452" rx="105.881" ry="18"/>
<text text-anchor="middle" x="1714" y="-448.3" font-family="Times,serif" font-size="14.00">pg_ddlx_alter_owner(oid)</text>
</g>
<!-- pg_ddlx_identify(oid) -->
<g id="node2" class="node"><title>pg_ddlx_identify(oid)</title>
<ellipse fill="none" stroke="black" cx="2373" cy="-448" rx="90.9839" ry="18"/>
<text text-anchor="middle" x="2373" y="-444.3" font-family="Times,serif" font-size="14.00">pg_ddlx_identify(oid)</text>
</g>
<!-- pg_ddlx_alter_owner(oid)&#45;&gt;pg_ddlx_identify(oid) -->
<g id="edge1" class="edge"><title>pg_ddlx_alter_owner(oid)&#45;&gt;pg_ddlx_identify(oid)</title>
<path fill="none" stroke="black" d="M1820.19,-451.36C1944.48,-450.603 2149.76,-449.353 2271.82,-448.61"/>
<polygon fill="black" stroke="black" points="2271.94,-452.109 2281.91,-448.548 2271.89,-445.11 2271.94,-452.109"/>
</g>
<!-- pg_ddlx_alter_table_defaults(regclass) -->
<g id="node3" class="node"><title>pg_ddlx_alter_table_defaults(regclass)</title>
<ellipse fill="none" stroke="black" cx="2056" cy="-1021" rx="152.173" ry="18"/>
<text text-anchor="middle" x="2056" y="-1017.3" font-family="Times,serif" font-size="14.00">pg_ddlx_alter_table_defaults(regclass)</text>
</g>
<!-- pg_ddlx_get_columns(regclass) -->
<g id="node4" class="node"><title>pg_ddlx_get_columns(regclass)</title>
<ellipse fill="none" stroke="black" cx="2373" cy="-902" rx="126.978" ry="18"/>
<text text-anchor="middle" x="2373" y="-898.3" font-family="Times,serif" font-size="14.00">pg_ddlx_get_columns(regclass)</text>
</g>
<!-- pg_ddlx_alter_table_defaults(regclass)&#45;&gt;pg_ddlx_get_columns(regclass) -->
<g id="edge2" class="edge"><title>pg_ddlx_alter_table_defaults(regclass)&#45;&gt;pg_ddlx_get_columns(regclass)</title>
<path fill="none" stroke="black" d="M2102.47,-1003.82C2159.48,-982.287 2257.08,-945.412 2317.88,-922.445"/>
<polygon fill="black" stroke="black" points="2319.19,-925.691 2327.31,-918.883 2316.72,-919.143 2319.19,-925.691"/>
</g>
<!-- pg_ddlx_comment(oid) -->
<g id="node5" class="node"><title>pg_ddlx_comment(oid)</title>
<ellipse fill="none" stroke="black" cx="2056" cy="-548" rx="96.6831" ry="18"/>
<text text-anchor="middle" x="2056" y="-544.3" font-family="Times,serif" font-size="14.00">pg_ddlx_comment(oid)</text>
</g>
<!-- pg_ddlx_comment(oid)&#45;&gt;pg_ddlx_identify(oid) -->
<g id="edge3" class="edge"><title>pg_ddlx_comment(oid)&#45;&gt;pg_ddlx_identify(oid)</title>
<path fill="none" stroke="black" d="M2136.12,-537.888C2160.14,-533.793 2186.41,-528.27 2210,-521 2252.93,-507.766 2299.44,-485.967 2331.57,-469.629"/>
<polygon fill="black" stroke="black" points="2333.35,-472.648 2340.64,-464.964 2330.15,-466.422 2333.35,-472.648"/>
</g>
<!-- pg_ddlx_create_aggregate(regproc) -->
<g id="node6" class="node"><title>pg_ddlx_create_aggregate(regproc)</title>
<ellipse fill="none" stroke="black" cx="2056" cy="-364" rx="140.275" ry="18"/>
<text text-anchor="middle" x="2056" y="-360.3" font-family="Times,serif" font-size="14.00">pg_ddlx_create_aggregate(regproc)</text>
</g>
<!-- pg_ddlx_create_aggregate(regproc)&#45;&gt;pg_ddlx_identify(oid) -->
<g id="edge4" class="edge"><title>pg_ddlx_create_aggregate(regproc)&#45;&gt;pg_ddlx_identify(oid)</title>
<path fill="none" stroke="black" d="M2135.99,-378.88C2159.89,-383.822 2186.12,-389.69 2210,-396 2246.33,-405.603 2286.57,-418.505 2317.85,-429.055"/>
<polygon fill="black" stroke="black" points="2317.08,-432.49 2327.67,-432.39 2319.33,-425.861 2317.08,-432.49"/>
</g>
<!-- pg_ddlx_create_class(regclass) -->
<g id="node7" class="node"><title>pg_ddlx_create_class(regclass)</title>
<ellipse fill="none" stroke="black" cx="1714" cy="-798" rx="124.278" ry="18"/>
<text text-anchor="middle" x="1714" y="-794.3" font-family="Times,serif" font-size="14.00">pg_ddlx_create_class(regclass)</text>
</g>
<!-- pg_ddlx_create_class(regclass)&#45;&gt;pg_ddlx_identify(oid) -->
<g id="edge12" class="edge"><title>pg_ddlx_create_class(regclass)&#45;&gt;pg_ddlx_identify(oid)</title>
<path fill="none" stroke="black" d="M1809.93,-786.422C1830.24,-780.286 1850.28,-771.003 1866,-757 1898.17,-728.344 1867.87,-693.295 1902,-667 2011.25,-582.814 2087.77,-692.905 2210,-629 2278.62,-593.123 2332.14,-515.599 2356.93,-474.625"/>
<polygon fill="black" stroke="black" points="2359.96,-476.376 2362.05,-465.99 2353.94,-472.804 2359.96,-476.376"/>
</g>
<!-- pg_ddlx_create_class(regclass)&#45;&gt;pg_ddlx_get_columns(regclass) -->
<g id="edge11" class="edge"><title>pg_ddlx_create_class(regclass)&#45;&gt;pg_ddlx_get_columns(regclass)</title>
<path fill="none" stroke="black" d="M1757.5,-814.953C1788.04,-827.461 1830.01,-845.313 1866,-863 1882.43,-871.073 1884.38,-878.052 1902,-883 2018.94,-915.837 2158.65,-916.931 2255.2,-912.083"/>
<polygon fill="black" stroke="black" points="2255.48,-915.573 2265.28,-911.547 2255.11,-908.583 2255.48,-915.573"/>
</g>
<!-- pg_ddlx_create_class(regclass)&#45;&gt;pg_ddlx_comment(oid) -->
<g id="edge6" class="edge"><title>pg_ddlx_create_class(regclass)&#45;&gt;pg_ddlx_comment(oid)</title>
<path fill="none" stroke="black" d="M1826.38,-790.264C1841.2,-784.966 1855.04,-777.209 1866,-766 1926.39,-704.233 1840.56,-635.726 1902,-575 1914.95,-562.201 1931.71,-554.274 1949.36,-549.54"/>
<polygon fill="black" stroke="black" points="1950.31,-552.914 1959.25,-547.228 1948.71,-546.098 1950.31,-552.914"/>
</g>
<!-- pg_ddlx_banner(text,text,text,text,text) -->
<g id="node8" class="node"><title>pg_ddlx_banner(text,text,text,text,text)</title>
<ellipse fill="none" stroke="black" cx="2056" cy="-494" rx="153.273" ry="18"/>
<text text-anchor="middle" x="2056" y="-490.3" font-family="Times,serif" font-size="14.00">pg_ddlx_banner(text,text,text,text,text)</text>
</g>
<!-- pg_ddlx_create_class(regclass)&#45;&gt;pg_ddlx_banner(text,text,text,text,text) -->
<g id="edge5" class="edge"><title>pg_ddlx_create_class(regclass)&#45;&gt;pg_ddlx_banner(text,text,text,text,text)</title>
<path fill="none" stroke="black" d="M1785.83,-783.292C1814.87,-773.712 1846.24,-758.13 1866,-733 1925.07,-657.868 1834.64,-588.797 1902,-521 1906.68,-516.291 1911.87,-512.238 1917.44,-508.758"/>
<polygon fill="black" stroke="black" points="1919.42,-511.661 1926.47,-503.75 1916.02,-505.539 1919.42,-511.661"/>
</g>
<!-- pg_ddlx_create_index(regclass) -->
<g id="node9" class="node"><title>pg_ddlx_create_index(regclass)</title>
<ellipse fill="none" stroke="black" cx="2056" cy="-748" rx="126.978" ry="18"/>
<text text-anchor="middle" x="2056" y="-744.3" font-family="Times,serif" font-size="14.00">pg_ddlx_create_index(regclass)</text>
</g>
<!-- pg_ddlx_create_class(regclass)&#45;&gt;pg_ddlx_create_index(regclass) -->
<g id="edge7" class="edge"><title>pg_ddlx_create_class(regclass)&#45;&gt;pg_ddlx_create_index(regclass)</title>
<path fill="none" stroke="black" d="M1801.68,-785.254C1849.16,-778.27 1908.18,-769.591 1957.3,-762.368"/>
<polygon fill="black" stroke="black" points="1957.92,-765.815 1967.3,-760.897 1956.9,-758.889 1957.92,-765.815"/>
</g>
<!-- pg_ddlx_create_sequence(regclass) -->
<g id="node10" class="node"><title>pg_ddlx_create_sequence(regclass)</title>
<ellipse fill="none" stroke="black" cx="2056" cy="-602" rx="140.275" ry="18"/>
<text text-anchor="middle" x="2056" y="-598.3" font-family="Times,serif" font-size="14.00">pg_ddlx_create_sequence(regclass)</text>
</g>
<!-- pg_ddlx_create_class(regclass)&#45;&gt;pg_ddlx_create_sequence(regclass) -->
<g id="edge8" class="edge"><title>pg_ddlx_create_class(regclass)&#45;&gt;pg_ddlx_create_sequence(regclass)</title>
<path fill="none" stroke="black" d="M1824.83,-789.73C1840.05,-784.533 1854.41,-776.946 1866,-766 1910.22,-724.253 1857.73,-675.688 1902,-634 1909.94,-626.522 1919.16,-620.604 1929.06,-615.939"/>
<polygon fill="black" stroke="black" points="1930.49,-619.133 1938.33,-611.999 1927.76,-612.691 1930.49,-619.133"/>
</g>
<!-- pg_ddlx_create_table(regclass) -->
<g id="node11" class="node"><title>pg_ddlx_create_table(regclass)</title>
<ellipse fill="none" stroke="black" cx="2056" cy="-802" rx="124.278" ry="18"/>
<text text-anchor="middle" x="2056" y="-798.3" font-family="Times,serif" font-size="14.00">pg_ddlx_create_table(regclass)</text>
</g>
<!-- pg_ddlx_create_class(regclass)&#45;&gt;pg_ddlx_create_table(regclass) -->
<g id="edge9" class="edge"><title>pg_ddlx_create_class(regclass)&#45;&gt;pg_ddlx_create_table(regclass)</title>
<path fill="none" stroke="black" d="M1837.75,-799.444C1865.11,-799.766 1894.24,-800.109 1921.99,-800.435"/>
<polygon fill="black" stroke="black" points="1922.11,-803.937 1932.15,-800.555 1922.19,-796.937 1922.11,-803.937"/>
</g>
<!-- pg_ddlx_create_view(regclass) -->
<g id="node12" class="node"><title>pg_ddlx_create_view(regclass)</title>
<ellipse fill="none" stroke="black" cx="2056" cy="-694" rx="124.278" ry="18"/>
<text text-anchor="middle" x="2056" y="-690.3" font-family="Times,serif" font-size="14.00">pg_ddlx_create_view(regclass)</text>
</g>
<!-- pg_ddlx_create_class(regclass)&#45;&gt;pg_ddlx_create_view(regclass) -->
<g id="edge10" class="edge"><title>pg_ddlx_create_class(regclass)&#45;&gt;pg_ddlx_create_view(regclass)</title>
<path fill="none" stroke="black" d="M1813.81,-787.253C1832.04,-782.5 1850.26,-775.703 1866,-766 1887.8,-752.559 1879.97,-734.066 1902,-721 1913,-714.476 1925.17,-709.442 1937.71,-705.57"/>
<polygon fill="black" stroke="black" points="1938.69,-708.931 1947.35,-702.831 1936.78,-702.197 1938.69,-708.931"/>
</g>
<!-- pg_ddlx_create_sequence(regclass)&#45;&gt;pg_ddlx_identify(oid) -->
<g id="edge60" class="edge"><title>pg_ddlx_create_sequence(regclass)&#45;&gt;pg_ddlx_identify(oid)</title>
<path fill="none" stroke="black" d="M2163.14,-590.259C2179.24,-586.5 2195.34,-581.541 2210,-575 2265.42,-550.265 2318.6,-502.459 2348.13,-473.076"/>
<polygon fill="black" stroke="black" points="2350.91,-475.239 2355.46,-465.67 2345.94,-470.313 2350.91,-475.239"/>
</g>
<!-- pg_ddlx_create_table(regclass)&#45;&gt;pg_ddlx_identify(oid) -->
<g id="edge62" class="edge"><title>pg_ddlx_create_table(regclass)&#45;&gt;pg_ddlx_identify(oid)</title>
<path fill="none" stroke="black" d="M2169.89,-794.648C2184.29,-790.21 2198.13,-783.892 2210,-775 2312.08,-698.558 2353.79,-540.154 2366.95,-475.944"/>
<polygon fill="black" stroke="black" points="2370.39,-476.615 2368.89,-466.126 2363.52,-475.259 2370.39,-476.615"/>
</g>
<!-- pg_ddlx_create_table(regclass)&#45;&gt;pg_ddlx_get_columns(regclass) -->
<g id="edge61" class="edge"><title>pg_ddlx_create_table(regclass)&#45;&gt;pg_ddlx_get_columns(regclass)</title>
<path fill="none" stroke="black" d="M2147.69,-814.168C2168.4,-818.001 2190.15,-822.882 2210,-829 2252.53,-842.11 2298.57,-863.625 2330.66,-879.91"/>
<polygon fill="black" stroke="black" points="2329.24,-883.117 2339.74,-884.567 2332.44,-876.889 2329.24,-883.117"/>
</g>
<!-- pg_ddlx_create_constraints(regclass) -->
<g id="node13" class="node"><title>pg_ddlx_create_constraints(regclass)</title>
<ellipse fill="none" stroke="black" cx="1380" cy="-1052" rx="146.474" ry="18"/>
<text text-anchor="middle" x="1380" y="-1048.3" font-family="Times,serif" font-size="14.00">pg_ddlx_create_constraints(regclass)</text>
</g>
<!-- pg_ddlx_get_constraints(regclass) -->
<g id="node14" class="node"><title>pg_ddlx_get_constraints(regclass)</title>
<ellipse fill="none" stroke="black" cx="1714" cy="-1052" rx="135.676" ry="18"/>
<text text-anchor="middle" x="1714" y="-1048.3" font-family="Times,serif" font-size="14.00">pg_ddlx_get_constraints(regclass)</text>
</g>
<!-- pg_ddlx_create_constraints(regclass)&#45;&gt;pg_ddlx_get_constraints(regclass) -->
<g id="edge13" class="edge"><title>pg_ddlx_create_constraints(regclass)&#45;&gt;pg_ddlx_get_constraints(regclass)</title>
<path fill="none" stroke="black" d="M1526.62,-1052C1540.23,-1052 1554.02,-1052 1567.62,-1052"/>
<polygon fill="black" stroke="black" points="1567.98,-1055.5 1577.98,-1052 1567.98,-1048.5 1567.98,-1055.5"/>
</g>
<!-- pg_ddlx_create_function(regproc) -->
<g id="node15" class="node"><title>pg_ddlx_create_function(regproc)</title>
<ellipse fill="none" stroke="black" cx="1714" cy="-360" rx="135.676" ry="18"/>
<text text-anchor="middle" x="1714" y="-356.3" font-family="Times,serif" font-size="14.00">pg_ddlx_create_function(regproc)</text>
</g>
<!-- pg_ddlx_create_function(regproc)&#45;&gt;pg_ddlx_identify(oid) -->
<g id="edge17" class="edge"><title>pg_ddlx_create_function(regproc)&#45;&gt;pg_ddlx_identify(oid)</title>
<path fill="none" stroke="black" d="M1796.8,-374.355C1829.48,-379.88 1867.47,-386.047 1902,-391 2034.28,-409.976 2188.1,-427.838 2282.75,-438.349"/>
<polygon fill="black" stroke="black" points="2282.54,-441.846 2292.86,-439.468 2283.31,-434.888 2282.54,-441.846"/>
</g>
<!-- pg_ddlx_create_function(regproc)&#45;&gt;pg_ddlx_comment(oid) -->
<g id="edge15" class="edge"><title>pg_ddlx_create_function(regproc)&#45;&gt;pg_ddlx_comment(oid)</title>
<path fill="none" stroke="black" d="M1828.59,-369.69C1842.39,-374.815 1855.35,-382.005 1866,-392 1909.4,-432.737 1857.91,-481.011 1902,-521 1915.11,-532.891 1931.55,-540.46 1948.76,-545.142"/>
<polygon fill="black" stroke="black" points="1948.42,-548.658 1958.96,-547.575 1950.04,-541.85 1948.42,-548.658"/>
</g>
<!-- pg_ddlx_create_function(regproc)&#45;&gt;pg_ddlx_create_aggregate(regproc) -->
<g id="edge16" class="edge"><title>pg_ddlx_create_function(regproc)&#45;&gt;pg_ddlx_create_aggregate(regproc)</title>
<path fill="none" stroke="black" d="M1849.38,-361.581C1867.94,-361.799 1887.1,-362.025 1905.92,-362.246"/>
<polygon fill="black" stroke="black" points="1905.98,-365.747 1916.02,-362.365 1906.06,-358.747 1905.98,-365.747"/>
</g>
<!-- pg_ddlx_create_function(regproc)&#45;&gt;pg_ddlx_banner(text,text,text,text,text) -->
<g id="edge14" class="edge"><title>pg_ddlx_create_function(regproc)&#45;&gt;pg_ddlx_banner(text,text,text,text,text)</title>
<path fill="none" stroke="black" d="M1811.39,-372.639C1830.11,-377.229 1849.14,-383.482 1866,-392 1885.11,-401.652 1884.07,-412.307 1902,-424 1932.25,-443.725 1968.96,-460.723 1998.84,-473.028"/>
<polygon fill="black" stroke="black" points="1997.7,-476.343 2008.28,-476.856 2000.33,-469.856 1997.7,-476.343"/>
</g>
<!-- pg_ddlx_create_indexes(regclass) -->
<g id="node16" class="node"><title>pg_ddlx_create_indexes(regclass)</title>
<ellipse fill="none" stroke="black" cx="1380" cy="-998" rx="134.576" ry="18"/>
<text text-anchor="middle" x="1380" y="-994.3" font-family="Times,serif" font-size="14.00">pg_ddlx_create_indexes(regclass)</text>
</g>
<!-- pg_ddlx_get_indexes(regclass) -->
<g id="node17" class="node"><title>pg_ddlx_get_indexes(regclass)</title>
<ellipse fill="none" stroke="black" cx="1714" cy="-998" rx="124.278" ry="18"/>
<text text-anchor="middle" x="1714" y="-994.3" font-family="Times,serif" font-size="14.00">pg_ddlx_get_indexes(regclass)</text>
</g>
<!-- pg_ddlx_create_indexes(regclass)&#45;&gt;pg_ddlx_get_indexes(regclass) -->
<g id="edge18" class="edge"><title>pg_ddlx_create_indexes(regclass)&#45;&gt;pg_ddlx_get_indexes(regclass)</title>
<path fill="none" stroke="black" d="M1514.6,-998C1535.99,-998 1558.12,-998 1579.51,-998"/>
<polygon fill="black" stroke="black" points="1579.61,-1001.5 1589.61,-998 1579.61,-994.5 1579.61,-1001.5"/>
</g>
<!-- pg_ddlx_create(oid) -->
<g id="node18" class="node"><title>pg_ddlx_create(oid)</title>
<ellipse fill="none" stroke="black" cx="726" cy="-494" rx="84.485" ry="18"/>
<text text-anchor="middle" x="726" y="-490.3" font-family="Times,serif" font-size="14.00">pg_ddlx_create(oid)</text>
</g>
<!-- pg_ddlx_create(oid)&#45;&gt;pg_ddlx_identify(oid) -->
<g id="edge30" class="edge"><title>pg_ddlx_create(oid)&#45;&gt;pg_ddlx_identify(oid)</title>
<path fill="none" stroke="black" d="M733.572,-475.803C750.376,-432.332 799.5,-322.81 882,-279 979.588,-227.177 1268.51,-264 1379,-264 1379,-264 1379,-264 1715,-264 1935.16,-264 2008.66,-193.937 2210,-283 2276.45,-312.393 2329.91,-382.698 2355.54,-421.374"/>
<polygon fill="black" stroke="black" points="2352.78,-423.548 2361.16,-430.029 2358.65,-419.736 2352.78,-423.548"/>
</g>
<!-- pg_ddlx_create_constraint(oid) -->
<g id="node19" class="node"><title>pg_ddlx_create_constraint(oid)</title>
<ellipse fill="none" stroke="black" cx="1040" cy="-740" rx="124.578" ry="18"/>
<text text-anchor="middle" x="1040" y="-736.3" font-family="Times,serif" font-size="14.00">pg_ddlx_create_constraint(oid)</text>
</g>
<!-- pg_ddlx_create(oid)&#45;&gt;pg_ddlx_create_constraint(oid) -->
<g id="edge19" class="edge"><title>pg_ddlx_create(oid)&#45;&gt;pg_ddlx_create_constraint(oid)</title>
<path fill="none" stroke="black" d="M734.025,-512.104C751.667,-554.942 802.213,-662.689 882,-713 892.999,-719.936 905.253,-725.234 917.931,-729.264"/>
<polygon fill="black" stroke="black" points="917.115,-732.671 927.695,-732.104 919.07,-725.95 917.115,-732.671"/>
</g>
<!-- pg_ddlx_create_default(oid) -->
<g id="node20" class="node"><title>pg_ddlx_create_default(oid)</title>
<ellipse fill="none" stroke="black" cx="1040" cy="-686" rx="114.28" ry="18"/>
<text text-anchor="middle" x="1040" y="-682.3" font-family="Times,serif" font-size="14.00">pg_ddlx_create_default(oid)</text>
</g>
<!-- pg_ddlx_create(oid)&#45;&gt;pg_ddlx_create_default(oid) -->
<g id="edge20" class="edge"><title>pg_ddlx_create(oid)&#45;&gt;pg_ddlx_create_default(oid)</title>
<path fill="none" stroke="black" d="M738.827,-512.047C761.966,-545.786 816.707,-618.231 882,-654 898.027,-662.78 916.167,-669.161 934.28,-673.796"/>
<polygon fill="black" stroke="black" points="933.491,-677.206 944.031,-676.13 935.121,-670.398 933.491,-677.206"/>
</g>
<!-- pg_ddlx_create(regclass) -->
<g id="node21" class="node"><title>pg_ddlx_create(regclass)</title>
<ellipse fill="none" stroke="black" cx="1040" cy="-844" rx="102.082" ry="18"/>
<text text-anchor="middle" x="1040" y="-840.3" font-family="Times,serif" font-size="14.00">pg_ddlx_create(regclass)</text>
</g>
<!-- pg_ddlx_create(oid)&#45;&gt;pg_ddlx_create(regclass) -->
<g id="edge21" class="edge"><title>pg_ddlx_create(oid)&#45;&gt;pg_ddlx_create(regclass)</title>
<path fill="none" stroke="black" d="M732.952,-512.021C749.455,-559.535 800.05,-689.857 882,-767 909.645,-793.024 947.749,-811.998 979.495,-824.599"/>
<polygon fill="black" stroke="black" points="978.534,-827.98 989.124,-828.306 981.049,-821.447 978.534,-827.98"/>
</g>
<!-- pg_ddlx_create(regnamespace) -->
<g id="node22" class="node"><title>pg_ddlx_create(regnamespace)</title>
<ellipse fill="none" stroke="black" cx="1380" cy="-472" rx="124.278" ry="18"/>
<text text-anchor="middle" x="1380" y="-468.3" font-family="Times,serif" font-size="14.00">pg_ddlx_create(regnamespace)</text>
</g>
<!-- pg_ddlx_create(oid)&#45;&gt;pg_ddlx_create(regnamespace) -->
<g id="edge22" class="edge"><title>pg_ddlx_create(oid)&#45;&gt;pg_ddlx_create(regnamespace)</title>
<path fill="none" stroke="black" d="M802.209,-486.079C827.531,-483.713 855.963,-481.384 882,-480 1005.1,-473.459 1145.56,-471.727 1245.68,-471.473"/>
<polygon fill="black" stroke="black" points="1245.86,-474.973 1255.85,-471.452 1245.85,-467.973 1245.86,-474.973"/>
</g>
<!-- pg_ddlx_create(regoper) -->
<g id="node23" class="node"><title>pg_ddlx_create(regoper)</title>
<ellipse fill="none" stroke="black" cx="1380" cy="-526" rx="100.983" ry="18"/>
<text text-anchor="middle" x="1380" y="-522.3" font-family="Times,serif" font-size="14.00">pg_ddlx_create(regoper)</text>
</g>
<!-- pg_ddlx_create(oid)&#45;&gt;pg_ddlx_create(regoper) -->
<g id="edge23" class="edge"><title>pg_ddlx_create(oid)&#45;&gt;pg_ddlx_create(regoper)</title>
<path fill="none" stroke="black" d="M809.992,-496.56C904.113,-499.647 1062.16,-505.384 1198,-513 1223.69,-514.44 1251.4,-516.284 1277.24,-518.128"/>
<polygon fill="black" stroke="black" points="1277.2,-521.634 1287.42,-518.862 1277.7,-514.652 1277.2,-521.634"/>
</g>
<!-- pg_ddlx_create(regoperator) -->
<g id="node24" class="node"><title>pg_ddlx_create(regoperator)</title>
<ellipse fill="none" stroke="black" cx="1040" cy="-540" rx="115.08" ry="18"/>
<text text-anchor="middle" x="1040" y="-536.3" font-family="Times,serif" font-size="14.00">pg_ddlx_create(regoperator)</text>
</g>
<!-- pg_ddlx_create(oid)&#45;&gt;pg_ddlx_create(regoperator) -->
<g id="edge24" class="edge"><title>pg_ddlx_create(oid)&#45;&gt;pg_ddlx_create(regoperator)</title>
<path fill="none" stroke="black" d="M795.856,-504.152C839.835,-510.636 897.418,-519.126 945.507,-526.216"/>
<polygon fill="black" stroke="black" points="945.212,-529.71 955.616,-527.706 946.233,-522.785 945.212,-529.71"/>
</g>
<!-- pg_ddlx_create(regproc) -->
<g id="node25" class="node"><title>pg_ddlx_create(regproc)</title>
<ellipse fill="none" stroke="black" cx="1380" cy="-310" rx="100.983" ry="18"/>
<text text-anchor="middle" x="1380" y="-306.3" font-family="Times,serif" font-size="14.00">pg_ddlx_create(regproc)</text>
</g>
<!-- pg_ddlx_create(oid)&#45;&gt;pg_ddlx_create(regproc) -->
<g id="edge25" class="edge"><title>pg_ddlx_create(oid)&#45;&gt;pg_ddlx_create(regproc)</title>
<path fill="none" stroke="black" d="M737.163,-476.046C758.555,-440.282 812.075,-360.851 882,-329 1018.56,-266.797 1198.74,-280.29 1300.39,-295.372"/>
<polygon fill="black" stroke="black" points="1300.17,-298.879 1310.58,-296.929 1301.23,-291.959 1300.17,-298.879"/>
</g>
<!-- pg_ddlx_create(regprocedure) -->
<g id="node26" class="node"><title>pg_ddlx_create(regprocedure)</title>
<ellipse fill="none" stroke="black" cx="1040" cy="-356" rx="120.779" ry="18"/>
<text text-anchor="middle" x="1040" y="-352.3" font-family="Times,serif" font-size="14.00">pg_ddlx_create(regprocedure)</text>
</g>
<!-- pg_ddlx_create(oid)&#45;&gt;pg_ddlx_create(regprocedure) -->
<g id="edge26" class="edge"><title>pg_ddlx_create(oid)&#45;&gt;pg_ddlx_create(regprocedure)</title>
<path fill="none" stroke="black" d="M745.797,-476.115C773.336,-451.013 827.336,-405.847 882,-383 896.898,-376.773 913.167,-371.982 929.405,-368.296"/>
<polygon fill="black" stroke="black" points="930.451,-371.652 939.5,-366.141 928.99,-364.806 930.451,-371.652"/>
</g>
<!-- pg_ddlx_create(regrole) -->
<g id="node27" class="node"><title>pg_ddlx_create(regrole)</title>
<ellipse fill="none" stroke="black" cx="1040" cy="-410" rx="98.5829" ry="18"/>
<text text-anchor="middle" x="1040" y="-406.3" font-family="Times,serif" font-size="14.00">pg_ddlx_create(regrole)</text>
</g>
<!-- pg_ddlx_create(oid)&#45;&gt;pg_ddlx_create(regrole) -->
<g id="edge27" class="edge"><title>pg_ddlx_create(oid)&#45;&gt;pg_ddlx_create(regrole)</title>
<path fill="none" stroke="black" d="M769.006,-478.35C799.948,-467.205 843.212,-452.417 882,-442 906.557,-435.405 933.593,-429.44 958.207,-424.496"/>
<polygon fill="black" stroke="black" points="959.101,-427.887 968.23,-422.511 957.741,-421.02 959.101,-427.887"/>
</g>
<!-- pg_ddlx_create(regtype) -->
<g id="node28" class="node"><title>pg_ddlx_create(regtype)</title>
<ellipse fill="none" stroke="black" cx="1380" cy="-684" rx="100.182" ry="18"/>
<text text-anchor="middle" x="1380" y="-680.3" font-family="Times,serif" font-size="14.00">pg_ddlx_create(regtype)</text>
</g>
<!-- pg_ddlx_create(oid)&#45;&gt;pg_ddlx_create(regtype) -->
<g id="edge28" class="edge"><title>pg_ddlx_create(oid)&#45;&gt;pg_ddlx_create(regtype)</title>
<path fill="none" stroke="black" d="M742.493,-512.062C768.215,-540.674 822.798,-595.756 882,-621 1012.12,-676.483 1057.71,-640.878 1198,-659 1228.11,-662.89 1261.01,-667.366 1290.4,-671.446"/>
<polygon fill="black" stroke="black" points="1290.25,-674.959 1300.64,-672.871 1291.22,-668.026 1290.25,-674.959"/>
</g>
<!-- pg_ddlx_create_trigger(oid) -->
<g id="node29" class="node"><title>pg_ddlx_create_trigger(oid)</title>
<ellipse fill="none" stroke="black" cx="1040" cy="-594" rx="113.18" ry="18"/>
<text text-anchor="middle" x="1040" y="-590.3" font-family="Times,serif" font-size="14.00">pg_ddlx_create_trigger(oid)</text>
</g>
<!-- pg_ddlx_create(oid)&#45;&gt;pg_ddlx_create_trigger(oid) -->
<g id="edge29" class="edge"><title>pg_ddlx_create(oid)&#45;&gt;pg_ddlx_create_trigger(oid)</title>
<path fill="none" stroke="black" d="M756.608,-510.908C787.102,-527.602 836.466,-552.653 882,-567 900.42,-572.804 920.472,-577.45 939.896,-581.139"/>
<polygon fill="black" stroke="black" points="939.517,-584.627 949.984,-582.981 940.775,-577.741 939.517,-584.627"/>
</g>
<!-- pg_ddlx_create(regclass)&#45;&gt;pg_ddlx_alter_owner(oid) -->
<g id="edge31" class="edge"><title>pg_ddlx_create(regclass)&#45;&gt;pg_ddlx_alter_owner(oid)</title>
<path fill="none" stroke="black" d="M1096.56,-828.859C1130.17,-817.067 1171.51,-797.474 1198,-767 1231.75,-728.176 1198.1,-693.841 1234,-657 1330.15,-558.335 1409.56,-626.618 1526,-553 1545.13,-540.908 1543.27,-529.701 1562,-517 1590.23,-497.858 1625,-482.424 1654.06,-471.407"/>
<polygon fill="black" stroke="black" points="1655.52,-474.599 1663.68,-467.841 1653.09,-468.035 1655.52,-474.599"/>
</g>
<!-- pg_ddlx_create(regclass)&#45;&gt;pg_ddlx_alter_table_defaults(regclass) -->
<g id="edge32" class="edge"><title>pg_ddlx_create(regclass)&#45;&gt;pg_ddlx_alter_table_defaults(regclass)</title>
<path fill="none" stroke="black" d="M1048.96,-862.072C1070.62,-908.675 1135.68,-1032.52 1234,-1079 1498.66,-1204.12 1865.53,-1091.83 2001.51,-1041.99"/>
<polygon fill="black" stroke="black" points="2003.12,-1045.12 2011.28,-1038.37 2000.69,-1038.56 2003.12,-1045.12"/>
</g>
<!-- pg_ddlx_create(regclass)&#45;&gt;pg_ddlx_create_class(regclass) -->
<g id="edge33" class="edge"><title>pg_ddlx_create(regclass)&#45;&gt;pg_ddlx_create_class(regclass)</title>
<path fill="none" stroke="black" d="M1134.74,-837.092C1166.28,-834.797 1201.66,-832.253 1234,-830 1355.05,-821.566 1493.35,-812.375 1590.12,-806.015"/>
<polygon fill="black" stroke="black" points="1590.49,-809.499 1600.24,-805.351 1590.03,-802.514 1590.49,-809.499"/>
</g>
<!-- pg_ddlx_create(regclass)&#45;&gt;pg_ddlx_create_constraints(regclass) -->
<g id="edge34" class="edge"><title>pg_ddlx_create(regclass)&#45;&gt;pg_ddlx_create_constraints(regclass)</title>
<path fill="none" stroke="black" d="M1054.16,-861.896C1082.5,-898.973 1153.26,-984.12 1234,-1025 1243.26,-1029.69 1253.23,-1033.57 1263.44,-1036.78"/>
<polygon fill="black" stroke="black" points="1262.71,-1040.22 1273.29,-1039.66 1264.68,-1033.5 1262.71,-1040.22"/>
</g>
<!-- pg_ddlx_create(regclass)&#45;&gt;pg_ddlx_create_indexes(regclass) -->
<g id="edge35" class="edge"><title>pg_ddlx_create(regclass)&#45;&gt;pg_ddlx_create_indexes(regclass)</title>
<path fill="none" stroke="black" d="M1061.69,-861.714C1095.41,-889.584 1165.36,-943.341 1234,-971 1246.11,-975.881 1259.15,-979.889 1272.27,-983.177"/>
<polygon fill="black" stroke="black" points="1271.77,-986.655 1282.31,-985.555 1273.38,-979.843 1271.77,-986.655"/>
</g>
<!-- pg_ddlx_create(regclass)&#45;&gt;pg_ddlx_create(regtype) -->
<g id="edge36" class="edge"><title>pg_ddlx_create(regclass)&#45;&gt;pg_ddlx_create(regtype)</title>
<path fill="none" stroke="black" d="M1069.24,-826.688C1125.57,-796.713 1252.74,-736.133 1325.41,-704.279"/>
<polygon fill="black" stroke="black" points="1327.08,-707.368 1334.85,-700.168 1324.29,-700.949 1327.08,-707.368"/>
</g>
<!-- pg_ddlx_create_rules(regclass) -->
<g id="node30" class="node"><title>pg_ddlx_create_rules(regclass)</title>
<ellipse fill="none" stroke="black" cx="1380" cy="-944" rx="124.278" ry="18"/>
<text text-anchor="middle" x="1380" y="-940.3" font-family="Times,serif" font-size="14.00">pg_ddlx_create_rules(regclass)</text>
</g>
<!-- pg_ddlx_create(regclass)&#45;&gt;pg_ddlx_create_rules(regclass) -->
<g id="edge37" class="edge"><title>pg_ddlx_create(regclass)&#45;&gt;pg_ddlx_create_rules(regclass)</title>
<path fill="none" stroke="black" d="M1079.14,-860.735C1117.6,-877.054 1178.98,-901.602 1234,-917 1250.18,-921.528 1267.59,-925.509 1284.55,-928.925"/>
<polygon fill="black" stroke="black" points="1283.97,-932.38 1294.46,-930.872 1285.32,-925.511 1283.97,-932.38"/>
</g>
<!-- pg_ddlx_create_triggers(regclass) -->
<g id="node31" class="node"><title>pg_ddlx_create_triggers(regclass)</title>
<ellipse fill="none" stroke="black" cx="1380" cy="-890" rx="134.576" ry="18"/>
<text text-anchor="middle" x="1380" y="-886.3" font-family="Times,serif" font-size="14.00">pg_ddlx_create_triggers(regclass)</text>
</g>
<!-- pg_ddlx_create(regclass)&#45;&gt;pg_ddlx_create_triggers(regclass) -->
<g id="edge38" class="edge"><title>pg_ddlx_create(regclass)&#45;&gt;pg_ddlx_create_triggers(regclass)</title>
<path fill="none" stroke="black" d="M1121.53,-854.96C1167.47,-861.212 1225.56,-869.118 1274.94,-875.837"/>
<polygon fill="black" stroke="black" points="1274.63,-879.328 1285.01,-877.208 1275.57,-872.392 1274.63,-879.328"/>
</g>
<!-- pg_ddlx_grants(regclass) -->
<g id="node32" class="node"><title>pg_ddlx_grants(regclass)</title>
<ellipse fill="none" stroke="black" cx="2056" cy="-856" rx="102.882" ry="18"/>
<text text-anchor="middle" x="2056" y="-852.3" font-family="Times,serif" font-size="14.00">pg_ddlx_grants(regclass)</text>
</g>
<!-- pg_ddlx_create(regclass)&#45;&gt;pg_ddlx_grants(regclass) -->
<g id="edge39" class="edge"><title>pg_ddlx_create(regclass)&#45;&gt;pg_ddlx_grants(regclass)</title>
<path fill="none" stroke="black" d="M1141.93,-845.194C1332.61,-847.451 1744.41,-852.324 1943.17,-854.677"/>
<polygon fill="black" stroke="black" points="1943.31,-858.178 1953.35,-854.797 1943.39,-851.179 1943.31,-858.178"/>
</g>
<!-- pg_ddlx_create(regnamespace)&#45;&gt;pg_ddlx_alter_owner(oid) -->
<g id="edge40" class="edge"><title>pg_ddlx_create(regnamespace)&#45;&gt;pg_ddlx_alter_owner(oid)</title>
<path fill="none" stroke="black" d="M1494.79,-465.145C1529.99,-463.025 1568.67,-460.695 1603.56,-458.593"/>
<polygon fill="black" stroke="black" points="1604,-462.073 1613.77,-457.977 1603.58,-455.085 1604,-462.073"/>
</g>
<!-- pg_ddlx_create(regnamespace)&#45;&gt;pg_ddlx_comment(oid) -->
<g id="edge41" class="edge"><title>pg_ddlx_create(regnamespace)&#45;&gt;pg_ddlx_comment(oid)</title>
<path fill="none" stroke="black" d="M1471.54,-459.807C1489.86,-456.046 1508.77,-451.202 1526,-445 1543.22,-438.8 1544.28,-429.591 1562,-425 1627.4,-408.054 1810.47,-386.521 1866,-425 1903.45,-450.955 1866.95,-491.877 1902,-521 1915.53,-532.24 1932.09,-539.506 1949.26,-544.093"/>
<polygon fill="black" stroke="black" points="1948.89,-547.601 1959.42,-546.494 1950.5,-540.789 1948.89,-547.601"/>
</g>
<!-- pg_ddlx_create(regoper)&#45;&gt;pg_ddlx_alter_owner(oid) -->
<g id="edge42" class="edge"><title>pg_ddlx_create(regoper)&#45;&gt;pg_ddlx_alter_owner(oid)</title>
<path fill="none" stroke="black" d="M1458.48,-514.687C1480.52,-510.632 1504.4,-505.432 1526,-499 1542.61,-494.053 1545.45,-489.152 1562,-484 1583.41,-477.334 1606.96,-471.607 1628.96,-466.917"/>
<polygon fill="black" stroke="black" points="1629.87,-470.302 1638.95,-464.835 1628.44,-463.45 1629.87,-470.302"/>
</g>
<!-- pg_ddlx_create(regoper)&#45;&gt;pg_ddlx_comment(oid) -->
<g id="edge43" class="edge"><title>pg_ddlx_create(regoper)&#45;&gt;pg_ddlx_comment(oid)</title>
<path fill="none" stroke="black" d="M1472.8,-518.858C1570.46,-512.53 1729.39,-505.871 1866,-517 1887.17,-518.725 1934.28,-526.449 1976.17,-533.754"/>
<polygon fill="black" stroke="black" points="1975.67,-537.221 1986.13,-535.5 1976.88,-530.326 1975.67,-537.221"/>
</g>
<!-- pg_ddlx_create(regoperator)&#45;&gt;pg_ddlx_create(regoper) -->
<g id="edge44" class="edge"><title>pg_ddlx_create(regoperator)&#45;&gt;pg_ddlx_create(regoper)</title>
<path fill="none" stroke="black" d="M1151.67,-535.416C1190.2,-533.82 1233.34,-532.033 1271.6,-530.449"/>
<polygon fill="black" stroke="black" points="1271.89,-533.94 1281.73,-530.029 1271.6,-526.946 1271.89,-533.94"/>
</g>
<!-- pg_ddlx_create(regproc)&#45;&gt;pg_ddlx_alter_owner(oid) -->
<g id="edge45" class="edge"><title>pg_ddlx_create(regproc)&#45;&gt;pg_ddlx_alter_owner(oid)</title>
<path fill="none" stroke="black" d="M1474.3,-316.573C1492.41,-320.754 1510.54,-327.191 1526,-337 1549.12,-351.671 1540.65,-369.854 1562,-387 1587.49,-407.472 1620.4,-422.638 1648.99,-433.147"/>
<polygon fill="black" stroke="black" points="1647.91,-436.476 1658.5,-436.533 1650.26,-429.882 1647.91,-436.476"/>
</g>
<!-- pg_ddlx_create(regproc)&#45;&gt;pg_ddlx_create_function(regproc) -->
<g id="edge46" class="edge"><title>pg_ddlx_create(regproc)&#45;&gt;pg_ddlx_create_function(regproc)</title>
<path fill="none" stroke="black" d="M1457.58,-321.534C1503.9,-328.508 1563.44,-337.476 1613.39,-344.998"/>
<polygon fill="black" stroke="black" points="1613.16,-348.503 1623.57,-346.531 1614.2,-341.581 1613.16,-348.503"/>
</g>
<!-- pg_ddlx_grants(regproc) -->
<g id="node33" class="node"><title>pg_ddlx_grants(regproc)</title>
<ellipse fill="none" stroke="black" cx="2056" cy="-310" rx="101.282" ry="18"/>
<text text-anchor="middle" x="2056" y="-306.3" font-family="Times,serif" font-size="14.00">pg_ddlx_grants(regproc)</text>
</g>
<!-- pg_ddlx_create(regproc)&#45;&gt;pg_ddlx_grants(regproc) -->
<g id="edge47" class="edge"><title>pg_ddlx_create(regproc)&#45;&gt;pg_ddlx_grants(regproc)</title>
<path fill="none" stroke="black" d="M1480.81,-310C1604.71,-310 1815.35,-310 1944.15,-310"/>
<polygon fill="black" stroke="black" points="1944.43,-313.5 1954.43,-310 1944.43,-306.5 1944.43,-313.5"/>
</g>
<!-- pg_ddlx_create(regprocedure)&#45;&gt;pg_ddlx_create(regproc) -->
<g id="edge48" class="edge"><title>pg_ddlx_create(regprocedure)&#45;&gt;pg_ddlx_create(regproc)</title>
<path fill="none" stroke="black" d="M1129.81,-343.914C1179.03,-337.215 1240.07,-328.908 1289.42,-322.192"/>
<polygon fill="black" stroke="black" points="1290,-325.644 1299.44,-320.828 1289.06,-318.708 1290,-325.644"/>
</g>
<!-- pg_ddlx_create_role(regrole) -->
<g id="node34" class="node"><title>pg_ddlx_create_role(regrole)</title>
<ellipse fill="none" stroke="black" cx="1380" cy="-418" rx="117.779" ry="18"/>
<text text-anchor="middle" x="1380" y="-414.3" font-family="Times,serif" font-size="14.00">pg_ddlx_create_role(regrole)</text>
</g>
<!-- pg_ddlx_create(regrole)&#45;&gt;pg_ddlx_create_role(regrole) -->
<g id="edge49" class="edge"><title>pg_ddlx_create(regrole)&#45;&gt;pg_ddlx_create_role(regrole)</title>
<path fill="none" stroke="black" d="M1138.31,-412.303C1174.2,-413.153 1215.4,-414.128 1253.44,-415.028"/>
<polygon fill="black" stroke="black" points="1253.47,-418.53 1263.55,-415.268 1253.64,-411.532 1253.47,-418.53"/>
</g>
<!-- pg_ddlx_grants(regrole) -->
<g id="node35" class="node"><title>pg_ddlx_grants(regrole)</title>
<ellipse fill="none" stroke="black" cx="1380" cy="-364" rx="99.3824" ry="18"/>
<text text-anchor="middle" x="1380" y="-360.3" font-family="Times,serif" font-size="14.00">pg_ddlx_grants(regrole)</text>
</g>
<!-- pg_ddlx_create(regrole)&#45;&gt;pg_ddlx_grants(regrole) -->
<g id="edge50" class="edge"><title>pg_ddlx_create(regrole)&#45;&gt;pg_ddlx_grants(regrole)</title>
<path fill="none" stroke="black" d="M1119.82,-399.273C1170.77,-392.34 1237.17,-383.302 1290.02,-376.11"/>
<polygon fill="black" stroke="black" points="1290.62,-379.561 1300.06,-374.744 1289.68,-372.624 1290.62,-379.561"/>
</g>
<!-- pg_ddlx_create(regtype)&#45;&gt;pg_ddlx_alter_owner(oid) -->
<g id="edge51" class="edge"><title>pg_ddlx_create(regtype)&#45;&gt;pg_ddlx_alter_owner(oid)</title>
<path fill="none" stroke="black" d="M1430.02,-668.371C1461.14,-656.251 1500.25,-636.637 1526,-608 1555.08,-575.658 1531.71,-548.21 1562,-517 1583.43,-494.925 1613.58,-479.916 1641.31,-469.936"/>
<polygon fill="black" stroke="black" points="1642.68,-473.167 1651,-466.612 1640.41,-466.546 1642.68,-473.167"/>
</g>
<!-- pg_ddlx_create(regtype)&#45;&gt;pg_ddlx_comment(oid) -->
<g id="edge52" class="edge"><title>pg_ddlx_create(regtype)&#45;&gt;pg_ddlx_comment(oid)</title>
<path fill="none" stroke="black" d="M1426.81,-700.017C1463,-711.782 1515.05,-726.757 1562,-733 1628.97,-741.904 1813.19,-775.13 1866,-733 1922.3,-688.084 1849.83,-624.655 1902,-575 1915.02,-562.604 1931.64,-554.833 1949.09,-550.119"/>
<polygon fill="black" stroke="black" points="1949.93,-553.517 1958.85,-547.804 1948.32,-546.705 1949.93,-553.517"/>
</g>
<!-- pg_ddlx_create(regtype)&#45;&gt;pg_ddlx_create_class(regclass) -->
<g id="edge53" class="edge"><title>pg_ddlx_create(regtype)&#45;&gt;pg_ddlx_create_class(regclass)</title>
<path fill="none" stroke="black" d="M1413.17,-701.156C1448.72,-719.492 1508.08,-748.305 1562,-766 1581.36,-772.355 1602.55,-777.758 1622.77,-782.215"/>
<polygon fill="black" stroke="black" points="1622.09,-785.649 1632.6,-784.326 1623.56,-778.805 1622.09,-785.649"/>
</g>
<!-- pg_ddlx_create(regtype)&#45;&gt;pg_ddlx_create(regclass) -->
<g id="edge54" class="edge"><title>pg_ddlx_create(regtype)&#45;&gt;pg_ddlx_create(regclass)</title>
<path fill="none" stroke="black" d="M1350.61,-701.394C1294.21,-731.392 1167.24,-791.876 1094.63,-823.706"/>
<polygon fill="black" stroke="black" points="1092.96,-820.614 1085.19,-827.814 1095.75,-827.032 1092.96,-820.614"/>
</g>
<!-- pg_ddlx_create_type_base(regtype) -->
<g id="node36" class="node"><title>pg_ddlx_create_type_base(regtype)</title>
<ellipse fill="none" stroke="black" cx="1714" cy="-598" rx="141.075" ry="18"/>
<text text-anchor="middle" x="1714" y="-594.3" font-family="Times,serif" font-size="14.00">pg_ddlx_create_type_base(regtype)</text>
</g>
<!-- pg_ddlx_create(regtype)&#45;&gt;pg_ddlx_create_type_base(regtype) -->
<g id="edge55" class="edge"><title>pg_ddlx_create(regtype)&#45;&gt;pg_ddlx_create_type_base(regtype)</title>
<path fill="none" stroke="black" d="M1424.76,-667.85C1461.12,-654.892 1514.4,-636.953 1562,-625 1578.52,-620.852 1596.21,-617.092 1613.45,-613.784"/>
<polygon fill="black" stroke="black" points="1614.35,-617.175 1623.54,-611.89 1613.06,-610.296 1614.35,-617.175"/>
</g>
<!-- pg_ddlx_create_type_domain(regtype) -->
<g id="node37" class="node"><title>pg_ddlx_create_type_domain(regtype)</title>
<ellipse fill="none" stroke="black" cx="1714" cy="-544" rx="152.173" ry="18"/>
<text text-anchor="middle" x="1714" y="-540.3" font-family="Times,serif" font-size="14.00">pg_ddlx_create_type_domain(regtype)</text>
</g>
<!-- pg_ddlx_create(regtype)&#45;&gt;pg_ddlx_create_type_domain(regtype) -->
<g id="edge56" class="edge"><title>pg_ddlx_create(regtype)&#45;&gt;pg_ddlx_create_type_domain(regtype)</title>
<path fill="none" stroke="black" d="M1420.51,-667.424C1450.84,-653.752 1492.97,-632.642 1526,-608 1544.39,-594.281 1541.73,-581.758 1562,-571 1571,-566.221 1580.69,-562.268 1590.65,-559"/>
<polygon fill="black" stroke="black" points="1591.72,-562.332 1600.27,-556.073 1589.69,-555.635 1591.72,-562.332"/>
</g>
<!-- pg_ddlx_create_type_enum(regtype) -->
<g id="node38" class="node"><title>pg_ddlx_create_type_enum(regtype)</title>
<ellipse fill="none" stroke="black" cx="1714" cy="-706" rx="144.874" ry="18"/>
<text text-anchor="middle" x="1714" y="-702.3" font-family="Times,serif" font-size="14.00">pg_ddlx_create_type_enum(regtype)</text>
</g>
<!-- pg_ddlx_create(regtype)&#45;&gt;pg_ddlx_create_type_enum(regtype) -->
<g id="edge57" class="edge"><title>pg_ddlx_create(regtype)&#45;&gt;pg_ddlx_create_type_enum(regtype)</title>
<path fill="none" stroke="black" d="M1474.36,-690.187C1505.78,-692.269 1541.53,-694.638 1575.62,-696.896"/>
<polygon fill="black" stroke="black" points="1575.45,-700.393 1585.66,-697.562 1575.91,-693.408 1575.45,-700.393"/>
</g>
<!-- pg_ddlx_create_type_range(regtype) -->
<g id="node39" class="node"><title>pg_ddlx_create_type_range(regtype)</title>
<ellipse fill="none" stroke="black" cx="1714" cy="-652" rx="144.874" ry="18"/>
<text text-anchor="middle" x="1714" y="-648.3" font-family="Times,serif" font-size="14.00">pg_ddlx_create_type_range(regtype)</text>
</g>
<!-- pg_ddlx_create(regtype)&#45;&gt;pg_ddlx_create_type_range(regtype) -->
<g id="edge58" class="edge"><title>pg_ddlx_create(regtype)&#45;&gt;pg_ddlx_create_type_range(regtype)</title>
<path fill="none" stroke="black" d="M1468.66,-675.551C1505.41,-672.008 1548.81,-667.826 1588.75,-663.976"/>
<polygon fill="black" stroke="black" points="1589.21,-667.448 1598.83,-663.004 1588.54,-660.48 1589.21,-667.448"/>
</g>
<!-- pg_ddlx_get_rules(regclass) -->
<g id="node40" class="node"><title>pg_ddlx_get_rules(regclass)</title>
<ellipse fill="none" stroke="black" cx="1714" cy="-944" rx="113.98" ry="18"/>
<text text-anchor="middle" x="1714" y="-940.3" font-family="Times,serif" font-size="14.00">pg_ddlx_get_rules(regclass)</text>
</g>
<!-- pg_ddlx_create_rules(regclass)&#45;&gt;pg_ddlx_get_rules(regclass) -->
<g id="edge59" class="edge"><title>pg_ddlx_create_rules(regclass)&#45;&gt;pg_ddlx_get_rules(regclass)</title>
<path fill="none" stroke="black" d="M1504.15,-944C1532.18,-944 1561.95,-944 1589.96,-944"/>
<polygon fill="black" stroke="black" points="1590.2,-947.5 1600.2,-944 1590.2,-940.5 1590.2,-947.5"/>
</g>
<!-- pg_ddlx_get_triggers(regclass) -->
<g id="node41" class="node"><title>pg_ddlx_get_triggers(regclass)</title>
<ellipse fill="none" stroke="black" cx="1714" cy="-890" rx="124.278" ry="18"/>
<text text-anchor="middle" x="1714" y="-886.3" font-family="Times,serif" font-size="14.00">pg_ddlx_get_triggers(regclass)</text>
</g>
<!-- pg_ddlx_create_triggers(regclass)&#45;&gt;pg_ddlx_get_triggers(regclass) -->
<g id="edge63" class="edge"><title>pg_ddlx_create_triggers(regclass)&#45;&gt;pg_ddlx_get_triggers(regclass)</title>
<path fill="none" stroke="black" d="M1514.6,-890C1535.99,-890 1558.12,-890 1579.51,-890"/>
<polygon fill="black" stroke="black" points="1579.61,-893.5 1589.61,-890 1579.61,-886.5 1579.61,-893.5"/>
</g>
<!-- pg_ddlx_grants(regclass)&#45;&gt;pg_ddlx_identify(oid) -->
<g id="edge69" class="edge"><title>pg_ddlx_grants(regclass)&#45;&gt;pg_ddlx_identify(oid)</title>
<path fill="none" stroke="black" d="M2157.34,-852.844C2176.31,-848.406 2194.9,-841.002 2210,-829 2325.32,-737.311 2359.83,-548.189 2369,-476.444"/>
<polygon fill="black" stroke="black" points="2372.5,-476.7 2370.22,-466.352 2365.55,-475.86 2372.5,-476.7"/>
</g>
<!-- pg_ddlx_grants(regproc)&#45;&gt;pg_ddlx_identify(oid) -->
<g id="edge70" class="edge"><title>pg_ddlx_grants(regproc)&#45;&gt;pg_ddlx_identify(oid)</title>
<path fill="none" stroke="black" d="M2144.58,-318.875C2166.47,-322.863 2189.52,-328.638 2210,-337 2261.86,-358.179 2313.89,-397.901 2344.5,-423.636"/>
<polygon fill="black" stroke="black" points="2342.3,-426.356 2352.18,-430.177 2346.84,-421.028 2342.3,-426.356"/>
</g>
<!-- pg_ddlx_drop(oid) -->
<g id="node42" class="node"><title>pg_ddlx_drop(oid)</title>
<ellipse fill="none" stroke="black" cx="726" cy="-137" rx="79.0865" ry="18"/>
<text text-anchor="middle" x="726" y="-133.3" font-family="Times,serif" font-size="14.00">pg_ddlx_drop(oid)</text>
</g>
<!-- pg_ddlx_drop(oid)&#45;&gt;pg_ddlx_identify(oid) -->
<g id="edge67" class="edge"><title>pg_ddlx_drop(oid)&#45;&gt;pg_ddlx_identify(oid)</title>
<path fill="none" stroke="black" d="M763.113,-120.974C794.003,-108.111 839.999,-90.935 882,-83 1099.21,-41.964 1157.95,-64 1379,-64 1379,-64 1379,-64 1715,-64 1947.61,-64 2021.61,-97.5561 2210,-234 2280.64,-285.163 2334.59,-375.92 2358.49,-421.015"/>
<polygon fill="black" stroke="black" points="2355.4,-422.664 2363.13,-429.914 2361.61,-419.428 2355.4,-422.664"/>
</g>
<!-- pg_ddlx_drop_constraint(oid) -->
<g id="node43" class="node"><title>pg_ddlx_drop_constraint(oid)</title>
<ellipse fill="none" stroke="black" cx="1040" cy="-110" rx="119.679" ry="18"/>
<text text-anchor="middle" x="1040" y="-106.3" font-family="Times,serif" font-size="14.00">pg_ddlx_drop_constraint(oid)</text>
</g>
<!-- pg_ddlx_drop(oid)&#45;&gt;pg_ddlx_drop_constraint(oid) -->
<g id="edge64" class="edge"><title>pg_ddlx_drop(oid)&#45;&gt;pg_ddlx_drop_constraint(oid)</title>
<path fill="none" stroke="black" d="M800.545,-130.636C837.826,-127.409 883.924,-123.42 925.622,-119.812"/>
<polygon fill="black" stroke="black" points="926.179,-123.277 935.84,-118.927 925.575,-116.303 926.179,-123.277"/>
</g>
<!-- pg_ddlx_drop_default(oid) -->
<g id="node44" class="node"><title>pg_ddlx_drop_default(oid)</title>
<ellipse fill="none" stroke="black" cx="1040" cy="-218" rx="109.381" ry="18"/>
<text text-anchor="middle" x="1040" y="-214.3" font-family="Times,serif" font-size="14.00">pg_ddlx_drop_default(oid)</text>
</g>
<!-- pg_ddlx_drop(oid)&#45;&gt;pg_ddlx_drop_default(oid) -->
<g id="edge65" class="edge"><title>pg_ddlx_drop(oid)&#45;&gt;pg_ddlx_drop_default(oid)</title>
<path fill="none" stroke="black" d="M765.948,-152.579C796.968,-164.495 841.718,-180.595 882,-191 902.574,-196.314 924.941,-200.871 946.17,-204.645"/>
<polygon fill="black" stroke="black" points="945.708,-208.118 956.159,-206.38 946.906,-201.221 945.708,-208.118"/>
</g>
<!-- pg_ddlx_drop_trigger(oid) -->
<g id="node45" class="node"><title>pg_ddlx_drop_trigger(oid)</title>
<ellipse fill="none" stroke="black" cx="1040" cy="-164" rx="108.581" ry="18"/>
<text text-anchor="middle" x="1040" y="-160.3" font-family="Times,serif" font-size="14.00">pg_ddlx_drop_trigger(oid)</text>
</g>
<!-- pg_ddlx_drop(oid)&#45;&gt;pg_ddlx_drop_trigger(oid) -->
<g id="edge66" class="edge"><title>pg_ddlx_drop(oid)&#45;&gt;pg_ddlx_drop_trigger(oid)</title>
<path fill="none" stroke="black" d="M800.545,-143.364C840.156,-146.792 889.722,-151.082 933.387,-154.86"/>
<polygon fill="black" stroke="black" points="933.212,-158.358 943.476,-155.734 933.815,-151.384 933.212,-158.358"/>
</g>
<!-- pg_ddlx_get_dependants(oid) -->
<g id="node46" class="node"><title>pg_ddlx_get_dependants(oid)</title>
<ellipse fill="none" stroke="black" cx="726" cy="-64" rx="119.679" ry="18"/>
<text text-anchor="middle" x="726" y="-60.3" font-family="Times,serif" font-size="14.00">pg_ddlx_get_dependants(oid)</text>
</g>
<!-- pg_ddlx_get_dependants_recursive(oid) -->
<g id="node47" class="node"><title>pg_ddlx_get_dependants_recursive(oid)</title>
<ellipse fill="none" stroke="black" cx="1040" cy="-18" rx="157.072" ry="18"/>
<text text-anchor="middle" x="1040" y="-14.3" font-family="Times,serif" font-size="14.00">pg_ddlx_get_dependants_recursive(oid)</text>
</g>
<!-- pg_ddlx_get_dependants(oid)&#45;&gt;pg_ddlx_get_dependants_recursive(oid) -->
<g id="edge68" class="edge"><title>pg_ddlx_get_dependants(oid)&#45;&gt;pg_ddlx_get_dependants_recursive(oid)</title>
<path fill="none" stroke="black" d="M812.255,-51.4303C849.513,-45.9372 893.601,-39.437 932.949,-33.6357"/>
<polygon fill="black" stroke="black" points="933.461,-37.0981 942.844,-32.1769 932.44,-30.173 933.461,-37.0981"/>
</g>
<!-- pg_ddlx_parts(oid) -->
<g id="node48" class="node"><title>pg_ddlx_parts(oid)</title>
<ellipse fill="none" stroke="black" cx="489" cy="-137" rx="80.6858" ry="18"/>
<text text-anchor="middle" x="489" y="-133.3" font-family="Times,serif" font-size="14.00">pg_ddlx_parts(oid)</text>
</g>
<!-- pg_ddlx_parts(oid)&#45;&gt;pg_ddlx_create(oid) -->
<g id="edge71" class="edge"><title>pg_ddlx_parts(oid)&#45;&gt;pg_ddlx_create(oid)</title>
<path fill="none" stroke="black" d="M501.977,-155.194C540.557,-213.803 661.724,-397.875 707.37,-467.218"/>
<polygon fill="black" stroke="black" points="704.626,-469.414 713.047,-475.842 710.472,-465.565 704.626,-469.414"/>
</g>
<!-- pg_ddlx_parts(oid)&#45;&gt;pg_ddlx_drop(oid) -->
<g id="edge72" class="edge"><title>pg_ddlx_parts(oid)&#45;&gt;pg_ddlx_drop(oid)</title>
<path fill="none" stroke="black" d="M569.888,-137C591.254,-137 614.474,-137 636.284,-137"/>
<polygon fill="black" stroke="black" points="636.528,-140.5 646.528,-137 636.528,-133.5 636.528,-140.5"/>
</g>
<!-- pg_ddlx_parts(oid)&#45;&gt;pg_ddlx_get_dependants(oid) -->
<g id="edge73" class="edge"><title>pg_ddlx_parts(oid)&#45;&gt;pg_ddlx_get_dependants(oid)</title>
<path fill="none" stroke="black" d="M536.709,-122.49C572.941,-111.235 623.49,-95.5329 663.091,-83.2313"/>
<polygon fill="black" stroke="black" points="664.138,-86.5712 672.649,-80.2622 662.061,-79.8863 664.138,-86.5712"/>
</g>
<!-- pg_ddlx_script(oid) -->
<g id="node49" class="node"><title>pg_ddlx_script(oid)</title>
<ellipse fill="none" stroke="black" cx="289" cy="-137" rx="83.3857" ry="18"/>
<text text-anchor="middle" x="289" y="-133.3" font-family="Times,serif" font-size="14.00">pg_ddlx_script(oid)</text>
</g>
<!-- pg_ddlx_script(oid)&#45;&gt;pg_ddlx_parts(oid) -->
<g id="edge74" class="edge"><title>pg_ddlx_script(oid)&#45;&gt;pg_ddlx_parts(oid)</title>
<path fill="none" stroke="black" d="M372.25,-137C380.803,-137 389.528,-137 398.159,-137"/>
<polygon fill="black" stroke="black" points="398.233,-140.5 408.233,-137 398.233,-133.5 398.233,-140.5"/>
</g>
<!-- pg_ddlx_script(text) -->
<g id="node50" class="node"><title>pg_ddlx_script(text)</title>
<ellipse fill="none" stroke="black" cx="85" cy="-137" rx="85.2851" ry="18"/>
<text text-anchor="middle" x="85" y="-133.3" font-family="Times,serif" font-size="14.00">pg_ddlx_script(text)</text>
</g>
<!-- pg_ddlx_script(text)&#45;&gt;pg_ddlx_script(oid) -->
<g id="edge75" class="edge"><title>pg_ddlx_script(text)&#45;&gt;pg_ddlx_script(oid)</title>
<path fill="none" stroke="black" d="M170.203,-137C178.515,-137 186.984,-137 195.374,-137"/>
<polygon fill="black" stroke="black" points="195.554,-140.5 205.554,-137 195.554,-133.5 195.554,-140.5"/>
</g>
</g>
</svg>
