<?xml version="1.0" encoding="UTF-8" standalone="no"?>
<!DOCTYPE svg PUBLIC "-//W3C//DTD SVG 1.1//EN"
 "http://www.w3.org/Graphics/SVG/1.1/DTD/svg11.dtd">
<!-- Generated by graphviz version 2.38.0 (20140413.2041)
 -->
<!-- Title: pg_ddl Pages: 1 -->
<svg width="2169pt" height="1140pt"
 viewBox="0.00 0.00 2169.13 1140.16" xmlns="http://www.w3.org/2000/svg" xmlns:xlink="http://www.w3.org/1999/xlink">
<g id="graph0" class="graph" transform="scale(1 1) rotate(0) translate(4 1136.16)">
<title>pg_ddl</title>
<polygon fill="white" stroke="none" points="-4,4 -4,-1136.16 2165.13,-1136.16 2165.13,4 -4,4"/>
<!-- ddlx_alter_owner(oid) -->
<g id="node1" class="node"><title>ddlx_alter_owner(oid)</title>
<ellipse fill="none" stroke="black" cx="1494.44" cy="-452" rx="89.8845" ry="18"/>
<text text-anchor="middle" x="1494.44" y="-448.3" font-family="Times,serif" font-size="14.00">ddlx_alter_owner(oid)</text>
</g>
<!-- ddlx_identify(oid) -->
<g id="node2" class="node"><title>ddlx_identify(oid)</title>
<ellipse fill="none" stroke="black" cx="2066.89" cy="-448" rx="75.2868" ry="18"/>
<text text-anchor="middle" x="2066.89" y="-444.3" font-family="Times,serif" font-size="14.00">ddlx_identify(oid)</text>
</g>
<!-- ddlx_alter_owner(oid)&#45;&gt;ddlx_identify(oid) -->
<g id="edge1" class="edge"><title>ddlx_alter_owner(oid)&#45;&gt;ddlx_identify(oid)</title>
<path fill="none" stroke="black" d="M1584.26,-451.377C1692.71,-450.617 1874.81,-449.34 1981.31,-448.593"/>
<polygon fill="black" stroke="black" points="1981.4,-452.093 1991.37,-448.523 1981.35,-445.093 1981.4,-452.093"/>
</g>
<!-- ddlx_alter_table_defaults(regclass) -->
<g id="node3" class="node"><title>ddlx_alter_table_defaults(regclass)</title>
<ellipse fill="none" stroke="black" cx="1800.81" cy="-1021" rx="133.776" ry="18"/>
<text text-anchor="middle" x="1800.81" y="-1017.3" font-family="Times,serif" font-size="14.00">ddlx_alter_table_defaults(regclass)</text>
</g>
<!-- ddlx_describe(regclass) -->
<g id="node4" class="node"><title>ddlx_describe(regclass)</title>
<ellipse fill="none" stroke="black" cx="2066.89" cy="-902" rx="94.4839" ry="18"/>
<text text-anchor="middle" x="2066.89" y="-898.3" font-family="Times,serif" font-size="14.00">ddlx_describe(regclass)</text>
</g>
<!-- ddlx_alter_table_defaults(regclass)&#45;&gt;ddlx_describe(regclass) -->
<g id="edge2" class="edge"><title>ddlx_alter_table_defaults(regclass)&#45;&gt;ddlx_describe(regclass)</title>
<path fill="none" stroke="black" d="M1840.21,-1003.7C1887.88,-982.214 1969.11,-945.612 2020.01,-922.674"/>
<polygon fill="black" stroke="black" points="2021.47,-925.857 2029.15,-918.557 2018.59,-919.475 2021.47,-925.857"/>
</g>
<!-- ddlx_comment(oid) -->
<g id="node5" class="node"><title>ddlx_comment(oid)</title>
<ellipse fill="none" stroke="black" cx="1800.81" cy="-548" rx="81.4863" ry="18"/>
<text text-anchor="middle" x="1800.81" y="-544.3" font-family="Times,serif" font-size="14.00">ddlx_comment(oid)</text>
</g>
<!-- ddlx_comment(oid)&#45;&gt;ddlx_identify(oid) -->
<g id="edge3" class="edge"><title>ddlx_comment(oid)&#45;&gt;ddlx_identify(oid)</title>
<path fill="none" stroke="black" d="M1870.54,-538.576C1892.1,-534.476 1915.73,-528.778 1936.65,-521 1971.22,-508.149 2007.53,-486.85 2032.83,-470.566"/>
<polygon fill="black" stroke="black" points="2034.84,-473.434 2041.3,-465.037 2031.02,-467.573 2034.84,-473.434"/>
</g>
<!-- ddlx_create_aggregate(regproc) -->
<g id="node6" class="node"><title>ddlx_create_aggregate(regproc)</title>
<ellipse fill="none" stroke="black" cx="1800.81" cy="-364" rx="122.678" ry="18"/>
<text text-anchor="middle" x="1800.81" y="-360.3" font-family="Times,serif" font-size="14.00">ddlx_create_aggregate(regproc)</text>
</g>
<!-- ddlx_create_aggregate(regproc)&#45;&gt;ddlx_identify(oid) -->
<g id="edge4" class="edge"><title>ddlx_create_aggregate(regproc)&#45;&gt;ddlx_identify(oid)</title>
<path fill="none" stroke="black" d="M1872.34,-378.641C1893.22,-383.538 1916.01,-389.44 1936.65,-396 1965.34,-405.12 1996.69,-417.665 2021.32,-428.149"/>
<polygon fill="black" stroke="black" points="2020.19,-431.47 2030.76,-432.201 2022.95,-425.038 2020.19,-431.47"/>
</g>
<!-- ddlx_create_class(regclass) -->
<g id="node7" class="node"><title>ddlx_create_class(regclass)</title>
<ellipse fill="none" stroke="black" cx="1494.44" cy="-798" rx="107.482" ry="18"/>
<text text-anchor="middle" x="1494.44" y="-794.3" font-family="Times,serif" font-size="14.00">ddlx_create_class(regclass)</text>
</g>
<!-- ddlx_create_class(regclass)&#45;&gt;ddlx_identify(oid) -->
<g id="edge12" class="edge"><title>ddlx_create_class(regclass)&#45;&gt;ddlx_identify(oid)</title>
<path fill="none" stroke="black" d="M1585.8,-788.39C1601.57,-783.352 1616.79,-775.915 1628.97,-765 1663.54,-734.039 1628.86,-696.136 1664.97,-667 1759.86,-590.445 1832.38,-692.189 1936.65,-629 1996.75,-592.579 2036.72,-516.465 2054.8,-475.502"/>
<polygon fill="black" stroke="black" points="2058.1,-476.698 2058.83,-466.128 2051.67,-473.935 2058.1,-476.698"/>
</g>
<!-- ddlx_create_class(regclass)&#45;&gt;ddlx_describe(regclass) -->
<g id="edge11" class="edge"><title>ddlx_create_class(regclass)&#45;&gt;ddlx_describe(regclass)</title>
<path fill="none" stroke="black" d="M1531.69,-814.995C1558.7,-827.814 1596.38,-846.032 1628.97,-863 1645.21,-871.453 1647.37,-877.991 1664.97,-883 1766.15,-911.789 1887.4,-913.232 1969.88,-909.57"/>
<polygon fill="black" stroke="black" points="1970.17,-913.06 1979.99,-909.087 1969.84,-906.068 1970.17,-913.06"/>
</g>
<!-- ddlx_create_class(regclass)&#45;&gt;ddlx_comment(oid) -->
<g id="edge6" class="edge"><title>ddlx_create_class(regclass)&#45;&gt;ddlx_comment(oid)</title>
<path fill="none" stroke="black" d="M1590.01,-789.764C1604.63,-784.691 1618.37,-777.136 1628.97,-766 1688.55,-703.442 1604.24,-636.427 1664.97,-575 1677.04,-562.795 1692.97,-555.316 1709.63,-550.871"/>
<polygon fill="black" stroke="black" points="1710.54,-554.251 1719.5,-548.591 1708.97,-547.431 1710.54,-554.251"/>
</g>
<!-- ddlx_banner(text,text,text,text,text) -->
<g id="node8" class="node"><title>ddlx_banner(text,text,text,text,text)</title>
<ellipse fill="none" stroke="black" cx="1800.81" cy="-494" rx="135.676" ry="18"/>
<text text-anchor="middle" x="1800.81" y="-490.3" font-family="Times,serif" font-size="14.00">ddlx_banner(text,text,text,text,text)</text>
</g>
<!-- ddlx_create_class(regclass)&#45;&gt;ddlx_banner(text,text,text,text,text) -->
<g id="edge5" class="edge"><title>ddlx_create_class(regclass)&#45;&gt;ddlx_banner(text,text,text,text,text)</title>
<path fill="none" stroke="black" d="M1554.11,-782.926C1580.93,-773.062 1610.73,-757.349 1628.97,-733 1686.28,-656.515 1598.4,-589.566 1664.97,-521 1669.45,-516.391 1674.47,-512.453 1679.88,-509.096"/>
<polygon fill="black" stroke="black" points="1681.58,-512.156 1688.67,-504.285 1678.22,-506.016 1681.58,-512.156"/>
</g>
<!-- ddlx_create_index(regclass) -->
<g id="node9" class="node"><title>ddlx_create_index(regclass)</title>
<ellipse fill="none" stroke="black" cx="1800.81" cy="-748" rx="109.681" ry="18"/>
<text text-anchor="middle" x="1800.81" y="-744.3" font-family="Times,serif" font-size="14.00">ddlx_create_index(regclass)</text>
</g>
<!-- ddlx_create_class(regclass)&#45;&gt;ddlx_create_index(regclass) -->
<g id="edge7" class="edge"><title>ddlx_create_class(regclass)&#45;&gt;ddlx_create_index(regclass)</title>
<path fill="none" stroke="black" d="M1571.85,-785.447C1614.66,-778.415 1668.21,-769.618 1712.66,-762.317"/>
<polygon fill="black" stroke="black" points="1713.27,-765.763 1722.57,-760.688 1712.14,-758.855 1713.27,-765.763"/>
</g>
<!-- ddlx_create_sequence(regclass) -->
<g id="node10" class="node"><title>ddlx_create_sequence(regclass)</title>
<ellipse fill="none" stroke="black" cx="1800.81" cy="-602" rx="122.379" ry="18"/>
<text text-anchor="middle" x="1800.81" y="-598.3" font-family="Times,serif" font-size="14.00">ddlx_create_sequence(regclass)</text>
</g>
<!-- ddlx_create_class(regclass)&#45;&gt;ddlx_create_sequence(regclass) -->
<g id="edge8" class="edge"><title>ddlx_create_class(regclass)&#45;&gt;ddlx_create_sequence(regclass)</title>
<path fill="none" stroke="black" d="M1588.6,-789.268C1603.55,-784.271 1617.76,-776.869 1628.97,-766 1672.64,-723.674 1621.27,-676.278 1664.97,-634 1672.58,-626.648 1681.54,-620.877 1691.18,-616.361"/>
<polygon fill="black" stroke="black" points="1692.74,-619.503 1700.6,-612.405 1690.03,-613.049 1692.74,-619.503"/>
</g>
<!-- ddlx_create_table(regclass) -->
<g id="node11" class="node"><title>ddlx_create_table(regclass)</title>
<ellipse fill="none" stroke="black" cx="1800.81" cy="-802" rx="107.482" ry="18"/>
<text text-anchor="middle" x="1800.81" y="-798.3" font-family="Times,serif" font-size="14.00">ddlx_create_table(regclass)</text>
</g>
<!-- ddlx_create_class(regclass)&#45;&gt;ddlx_create_table(regclass) -->
<g id="edge9" class="edge"><title>ddlx_create_class(regclass)&#45;&gt;ddlx_create_table(regclass)</title>
<path fill="none" stroke="black" d="M1601.47,-799.393C1627.94,-799.741 1656.47,-800.116 1683.41,-800.47"/>
<polygon fill="black" stroke="black" points="1683.6,-803.973 1693.65,-800.605 1683.7,-796.974 1683.6,-803.973"/>
</g>
<!-- ddlx_create_view(regclass) -->
<g id="node12" class="node"><title>ddlx_create_view(regclass)</title>
<ellipse fill="none" stroke="black" cx="1800.81" cy="-694" rx="107.482" ry="18"/>
<text text-anchor="middle" x="1800.81" y="-690.3" font-family="Times,serif" font-size="14.00">ddlx_create_view(regclass)</text>
</g>
<!-- ddlx_create_class(regclass)&#45;&gt;ddlx_create_view(regclass) -->
<g id="edge10" class="edge"><title>ddlx_create_class(regclass)&#45;&gt;ddlx_create_view(regclass)</title>
<path fill="none" stroke="black" d="M1579.02,-786.907C1596.4,-782.207 1613.98,-775.519 1628.97,-766 1650.6,-752.273 1643.1,-734.318 1664.97,-721 1675.25,-714.744 1686.71,-709.905 1698.48,-706.167"/>
<polygon fill="black" stroke="black" points="1699.79,-709.43 1708.42,-703.28 1697.84,-702.708 1699.79,-709.43"/>
</g>
<!-- ddlx_create_sequence(regclass)&#45;&gt;ddlx_identify(oid) -->
<g id="edge60" class="edge"><title>ddlx_create_sequence(regclass)&#45;&gt;ddlx_identify(oid)</title>
<path fill="none" stroke="black" d="M1895.64,-590.546C1909.86,-586.751 1923.99,-581.705 1936.65,-575 1983.2,-550.34 2024.16,-503.595 2046.92,-474.213"/>
<polygon fill="black" stroke="black" points="2049.85,-476.137 2053.11,-466.057 2044.27,-471.903 2049.85,-476.137"/>
</g>
<!-- ddlx_create_table(regclass)&#45;&gt;ddlx_identify(oid) -->
<g id="edge62" class="edge"><title>ddlx_create_table(regclass)&#45;&gt;ddlx_identify(oid)</title>
<path fill="none" stroke="black" d="M1899.26,-794.686C1912.85,-790.334 1925.84,-784.031 1936.65,-775 2030.53,-696.562 2056.63,-540.536 2063.54,-476.469"/>
<polygon fill="black" stroke="black" points="2067.04,-476.604 2064.55,-466.306 2060.08,-475.908 2067.04,-476.604"/>
</g>
<!-- ddlx_create_table(regclass)&#45;&gt;ddlx_describe(regclass) -->
<g id="edge61" class="edge"><title>ddlx_create_table(regclass)&#45;&gt;ddlx_describe(regclass)</title>
<path fill="none" stroke="black" d="M1882.12,-813.747C1900.36,-817.6 1919.42,-822.595 1936.65,-829 1971.01,-841.771 2007.08,-862.884 2032.36,-879.128"/>
<polygon fill="black" stroke="black" points="2030.54,-882.121 2040.83,-884.65 2034.36,-876.257 2030.54,-882.121"/>
</g>
<!-- ddlx_create_constraints(regclass) -->
<g id="node13" class="node"><title>ddlx_create_constraints(regclass)</title>
<ellipse fill="none" stroke="black" cx="1195.86" cy="-1052" rx="128.077" ry="18"/>
<text text-anchor="middle" x="1195.86" y="-1048.3" font-family="Times,serif" font-size="14.00">ddlx_create_constraints(regclass)</text>
</g>
<!-- ddlx_get_constraints(regclass) -->
<g id="node14" class="node"><title>ddlx_get_constraints(regclass)</title>
<ellipse fill="none" stroke="black" cx="1494.44" cy="-1052" rx="118.079" ry="18"/>
<text text-anchor="middle" x="1494.44" y="-1048.3" font-family="Times,serif" font-size="14.00">ddlx_get_constraints(regclass)</text>
</g>
<!-- ddlx_create_constraints(regclass)&#45;&gt;ddlx_get_constraints(regclass) -->
<g id="edge13" class="edge"><title>ddlx_create_constraints(regclass)&#45;&gt;ddlx_get_constraints(regclass)</title>
<path fill="none" stroke="black" d="M1323.93,-1052C1337.84,-1052 1352.01,-1052 1365.93,-1052"/>
<polygon fill="black" stroke="black" points="1366.02,-1055.5 1376.02,-1052 1366.02,-1048.5 1366.02,-1055.5"/>
</g>
<!-- ddlx_create_function(regproc) -->
<g id="node15" class="node"><title>ddlx_create_function(regproc)</title>
<ellipse fill="none" stroke="black" cx="1494.44" cy="-360" rx="118.079" ry="18"/>
<text text-anchor="middle" x="1494.44" y="-356.3" font-family="Times,serif" font-size="14.00">ddlx_create_function(regproc)</text>
</g>
<!-- ddlx_create_function(regproc)&#45;&gt;ddlx_identify(oid) -->
<g id="edge17" class="edge"><title>ddlx_create_function(regproc)&#45;&gt;ddlx_identify(oid)</title>
<path fill="none" stroke="black" d="M1568.76,-374.063C1598.57,-379.609 1633.37,-385.866 1664.97,-391 1777.94,-409.351 1909.35,-427.412 1990.07,-438.131"/>
<polygon fill="black" stroke="black" points="1989.77,-441.622 2000.14,-439.466 1990.69,-434.683 1989.77,-441.622"/>
</g>
<!-- ddlx_create_function(regproc)&#45;&gt;ddlx_comment(oid) -->
<g id="edge15" class="edge"><title>ddlx_create_function(regproc)&#45;&gt;ddlx_comment(oid)</title>
<path fill="none" stroke="black" d="M1592.63,-370.22C1606.08,-375.161 1618.76,-382.157 1628.97,-392 1671.83,-433.305 1621.35,-480.507 1664.97,-521 1677.41,-532.54 1693.33,-539.754 1709.84,-544.154"/>
<polygon fill="black" stroke="black" points="1709.07,-547.57 1719.61,-546.432 1710.66,-540.753 1709.07,-547.57"/>
</g>
<!-- ddlx_create_function(regproc)&#45;&gt;ddlx_create_aggregate(regproc) -->
<g id="edge16" class="edge"><title>ddlx_create_function(regproc)&#45;&gt;ddlx_create_aggregate(regproc)</title>
<path fill="none" stroke="black" d="M1612.68,-361.541C1630.84,-361.779 1649.7,-362.027 1668.15,-362.27"/>
<polygon fill="black" stroke="black" points="1668.3,-365.772 1678.35,-362.404 1668.39,-358.773 1668.3,-365.772"/>
</g>
<!-- ddlx_create_function(regproc)&#45;&gt;ddlx_banner(text,text,text,text,text) -->
<g id="edge14" class="edge"><title>ddlx_create_function(regproc)&#45;&gt;ddlx_banner(text,text,text,text,text)</title>
<path fill="none" stroke="black" d="M1577.18,-372.874C1594.86,-377.475 1613.02,-383.674 1628.97,-392 1647.95,-401.903 1647.34,-411.864 1664.97,-424 1692.19,-442.726 1725.04,-459.882 1751.51,-472.524"/>
<polygon fill="black" stroke="black" points="1750.05,-475.704 1760.58,-476.802 1753.03,-469.372 1750.05,-475.704"/>
</g>
<!-- ddlx_create_indexes(regclass) -->
<g id="node16" class="node"><title>ddlx_create_indexes(regclass)</title>
<ellipse fill="none" stroke="black" cx="1195.86" cy="-998" rx="116.979" ry="18"/>
<text text-anchor="middle" x="1195.86" y="-994.3" font-family="Times,serif" font-size="14.00">ddlx_create_indexes(regclass)</text>
</g>
<!-- ddlx_get_indexes(regclass) -->
<g id="node17" class="node"><title>ddlx_get_indexes(regclass)</title>
<ellipse fill="none" stroke="black" cx="1494.44" cy="-998" rx="106.681" ry="18"/>
<text text-anchor="middle" x="1494.44" y="-994.3" font-family="Times,serif" font-size="14.00">ddlx_get_indexes(regclass)</text>
</g>
<!-- ddlx_create_indexes(regclass)&#45;&gt;ddlx_get_indexes(regclass) -->
<g id="edge18" class="edge"><title>ddlx_create_indexes(regclass)&#45;&gt;ddlx_get_indexes(regclass)</title>
<path fill="none" stroke="black" d="M1313.22,-998C1334.28,-998 1356.24,-998 1377.29,-998"/>
<polygon fill="black" stroke="black" points="1377.55,-1001.5 1387.55,-998 1377.55,-994.5 1377.55,-1001.5"/>
</g>
<!-- ddlx_create(oid) -->
<g id="node18" class="node"><title>ddlx_create(oid)</title>
<ellipse fill="none" stroke="black" cx="614.955" cy="-494" rx="68.7879" ry="18"/>
<text text-anchor="middle" x="614.955" y="-490.3" font-family="Times,serif" font-size="14.00">ddlx_create(oid)</text>
</g>
<!-- ddlx_create(oid)&#45;&gt;ddlx_identify(oid) -->
<g id="edge30" class="edge"><title>ddlx_create(oid)&#45;&gt;ddlx_identify(oid)</title>
<path fill="none" stroke="black" d="M621.33,-475.762C635.107,-432.72 676.165,-325.129 753.646,-281 838.907,-232.44 1096.74,-264 1194.86,-264 1194.86,-264 1194.86,-264 1495.44,-264 1691.71,-264 1762.07,-193.29 1936.65,-283 1994.83,-312.897 2035.03,-382.167 2053.81,-420.772"/>
<polygon fill="black" stroke="black" points="2050.68,-422.342 2058.12,-429.884 2057.01,-419.347 2050.68,-422.342"/>
</g>
<!-- ddlx_create_constraint(oid) -->
<g id="node19" class="node"><title>ddlx_create_constraint(oid)</title>
<ellipse fill="none" stroke="black" cx="892.734" cy="-740" rx="107.781" ry="18"/>
<text text-anchor="middle" x="892.734" y="-736.3" font-family="Times,serif" font-size="14.00">ddlx_create_constraint(oid)</text>
</g>
<!-- ddlx_create(oid)&#45;&gt;ddlx_create_constraint(oid) -->
<g id="edge19" class="edge"><title>ddlx_create(oid)&#45;&gt;ddlx_create_constraint(oid)</title>
<path fill="none" stroke="black" d="M621.656,-511.955C636.147,-554.466 678.653,-661.55 753.646,-713 763.481,-719.748 774.588,-724.904 786.124,-728.829"/>
<polygon fill="black" stroke="black" points="785.309,-732.241 795.897,-731.846 787.374,-725.552 785.309,-732.241"/>
</g>
<!-- ddlx_create_default(oid) -->
<g id="node20" class="node"><title>ddlx_create_default(oid)</title>
<ellipse fill="none" stroke="black" cx="892.734" cy="-686" rx="97.4827" ry="18"/>
<text text-anchor="middle" x="892.734" y="-682.3" font-family="Times,serif" font-size="14.00">ddlx_create_default(oid)</text>
</g>
<!-- ddlx_create(oid)&#45;&gt;ddlx_create_default(oid) -->
<g id="edge20" class="edge"><title>ddlx_create(oid)&#45;&gt;ddlx_create_default(oid)</title>
<path fill="none" stroke="black" d="M626.025,-511.91C645.845,-545.418 693.282,-617.49 753.646,-654 767.992,-662.677 784.482,-669.002 800.959,-673.612"/>
<polygon fill="black" stroke="black" points="800.083,-677 810.643,-676.133 801.847,-670.226 800.083,-677"/>
</g>
<!-- ddlx_create(regclass) -->
<g id="node21" class="node"><title>ddlx_create(regclass)</title>
<ellipse fill="none" stroke="black" cx="892.734" cy="-844" rx="85.5853" ry="18"/>
<text text-anchor="middle" x="892.734" y="-840.3" font-family="Times,serif" font-size="14.00">ddlx_create(regclass)</text>
</g>
<!-- ddlx_create(oid)&#45;&gt;ddlx_create(regclass) -->
<g id="edge21" class="edge"><title>ddlx_create(oid)&#45;&gt;ddlx_create(regclass)</title>
<path fill="none" stroke="black" d="M620.998,-512.144C634.918,-559.402 677.946,-688.088 753.646,-767 777.803,-792.182 812.021,-811.342 840.35,-824.251"/>
<polygon fill="black" stroke="black" points="839.147,-827.546 849.709,-828.389 841.978,-821.144 839.147,-827.546"/>
</g>
<!-- ddlx_create(regnamespace) -->
<g id="node22" class="node"><title>ddlx_create(regnamespace)</title>
<ellipse fill="none" stroke="black" cx="1195.86" cy="-472" rx="107.781" ry="18"/>
<text text-anchor="middle" x="1195.86" y="-468.3" font-family="Times,serif" font-size="14.00">ddlx_create(regnamespace)</text>
</g>
<!-- ddlx_create(oid)&#45;&gt;ddlx_create(regnamespace) -->
<g id="edge22" class="edge"><title>ddlx_create(oid)&#45;&gt;ddlx_create(regnamespace)</title>
<path fill="none" stroke="black" d="M677.897,-486.595C701.563,-484.057 728.821,-481.485 753.646,-480 863.366,-473.439 988.683,-471.719 1077.65,-471.475"/>
<polygon fill="black" stroke="black" points="1077.78,-474.975 1087.78,-471.453 1077.77,-467.975 1077.78,-474.975"/>
</g>
<!-- ddlx_create(regoper) -->
<g id="node23" class="node"><title>ddlx_create(regoper)</title>
<ellipse fill="none" stroke="black" cx="1195.86" cy="-526" rx="84.485" ry="18"/>
<text text-anchor="middle" x="1195.86" y="-522.3" font-family="Times,serif" font-size="14.00">ddlx_create(regoper)</text>
</g>
<!-- ddlx_create(oid)&#45;&gt;ddlx_create(regoper) -->
<g id="edge23" class="edge"><title>ddlx_create(oid)&#45;&gt;ddlx_create(regoper)</title>
<path fill="none" stroke="black" d="M683.34,-496.376C765.623,-499.439 909.015,-505.301 1031.82,-513 1056.36,-514.538 1082.94,-516.523 1107.39,-518.476"/>
<polygon fill="black" stroke="black" points="1107.11,-521.965 1117.36,-519.28 1107.67,-514.987 1107.11,-521.965"/>
</g>
<!-- ddlx_create(regoperator) -->
<g id="node24" class="node"><title>ddlx_create(regoperator)</title>
<ellipse fill="none" stroke="black" cx="892.734" cy="-540" rx="98.2828" ry="18"/>
<text text-anchor="middle" x="892.734" y="-536.3" font-family="Times,serif" font-size="14.00">ddlx_create(regoperator)</text>
</g>
<!-- ddlx_create(oid)&#45;&gt;ddlx_create(regoperator) -->
<g id="edge24" class="edge"><title>ddlx_create(oid)&#45;&gt;ddlx_create(regoperator)</title>
<path fill="none" stroke="black" d="M673.432,-503.587C712.826,-510.158 765.682,-518.975 809.516,-526.286"/>
<polygon fill="black" stroke="black" points="809.145,-529.773 819.585,-527.966 810.297,-522.868 809.145,-529.773"/>
</g>
<!-- ddlx_create(regproc) -->
<g id="node25" class="node"><title>ddlx_create(regproc)</title>
<ellipse fill="none" stroke="black" cx="1195.86" cy="-310" rx="84.485" ry="18"/>
<text text-anchor="middle" x="1195.86" y="-306.3" font-family="Times,serif" font-size="14.00">ddlx_create(regproc)</text>
</g>
<!-- ddlx_create(oid)&#45;&gt;ddlx_create(regproc) -->
<g id="edge25" class="edge"><title>ddlx_create(oid)&#45;&gt;ddlx_create(regproc)</title>
<path fill="none" stroke="black" d="M624.435,-476.126C642.441,-440.508 688.262,-361.33 753.646,-329 872.721,-270.122 1032.71,-282.236 1123.69,-296.218"/>
<polygon fill="black" stroke="black" points="1123.2,-299.684 1133.63,-297.795 1124.3,-292.771 1123.2,-299.684"/>
</g>
<!-- ddlx_create(regprocedure) -->
<g id="node26" class="node"><title>ddlx_create(regprocedure)</title>
<ellipse fill="none" stroke="black" cx="892.734" cy="-356" rx="103.982" ry="18"/>
<text text-anchor="middle" x="892.734" y="-352.3" font-family="Times,serif" font-size="14.00">ddlx_create(regprocedure)</text>
</g>
<!-- ddlx_create(oid)&#45;&gt;ddlx_create(regprocedure) -->
<g id="edge26" class="edge"><title>ddlx_create(oid)&#45;&gt;ddlx_create(regprocedure)</title>
<path fill="none" stroke="black" d="M632.309,-476.212C656.355,-451.225 703.821,-406.201 753.646,-383 766.87,-376.842 781.439,-372.088 796.006,-368.418"/>
<polygon fill="black" stroke="black" points="797.142,-371.746 806.073,-366.046 795.537,-364.932 797.142,-371.746"/>
</g>
<!-- ddlx_create(regrole) -->
<g id="node27" class="node"><title>ddlx_create(regrole)</title>
<ellipse fill="none" stroke="black" cx="892.734" cy="-410" rx="82.5854" ry="18"/>
<text text-anchor="middle" x="892.734" y="-406.3" font-family="Times,serif" font-size="14.00">ddlx_create(regrole)</text>
</g>
<!-- ddlx_create(oid)&#45;&gt;ddlx_create(regrole) -->
<g id="edge27" class="edge"><title>ddlx_create(oid)&#45;&gt;ddlx_create(regrole)</title>
<path fill="none" stroke="black" d="M652.315,-478.747C679.812,-467.586 718.678,-452.603 753.646,-442 775.498,-435.374 799.65,-429.347 821.565,-424.356"/>
<polygon fill="black" stroke="black" points="822.468,-427.74 831.46,-422.137 820.936,-420.91 822.468,-427.74"/>
</g>
<!-- ddlx_create(regtype) -->
<g id="node28" class="node"><title>ddlx_create(regtype)</title>
<ellipse fill="none" stroke="black" cx="1195.86" cy="-684" rx="83.6854" ry="18"/>
<text text-anchor="middle" x="1195.86" y="-680.3" font-family="Times,serif" font-size="14.00">ddlx_create(regtype)</text>
</g>
<!-- ddlx_create(oid)&#45;&gt;ddlx_create(regtype) -->
<g id="edge28" class="edge"><title>ddlx_create(oid)&#45;&gt;ddlx_create(regtype)</title>
<path fill="none" stroke="black" d="M629.295,-511.969C651.552,-540.45 699.224,-595.353 753.646,-621 866.521,-674.194 908.33,-641.099 1031.82,-659 1059.72,-663.044 1090.26,-667.673 1117.3,-671.841"/>
<polygon fill="black" stroke="black" points="1117.05,-675.345 1127.47,-673.413 1118.12,-668.427 1117.05,-675.345"/>
</g>
<!-- ddlx_create_trigger(oid) -->
<g id="node29" class="node"><title>ddlx_create_trigger(oid)</title>
<ellipse fill="none" stroke="black" cx="892.734" cy="-594" rx="96.6831" ry="18"/>
<text text-anchor="middle" x="892.734" y="-590.3" font-family="Times,serif" font-size="14.00">ddlx_create_trigger(oid)</text>
</g>
<!-- ddlx_create(oid)&#45;&gt;ddlx_create_trigger(oid) -->
<g id="edge29" class="edge"><title>ddlx_create(oid)&#45;&gt;ddlx_create_trigger(oid)</title>
<path fill="none" stroke="black" d="M641.802,-510.691C668.71,-527.336 712.583,-552.461 753.646,-567 769.911,-572.759 787.714,-577.396 804.967,-581.091"/>
<polygon fill="black" stroke="black" points="804.547,-584.577 815.046,-583.159 805.954,-577.72 804.547,-584.577"/>
</g>
<!-- ddlx_create(regclass)&#45;&gt;ddlx_alter_owner(oid) -->
<g id="edge31" class="edge"><title>ddlx_create(regclass)&#45;&gt;ddlx_alter_owner(oid)</title>
<path fill="none" stroke="black" d="M939.022,-828.769C969.211,-816.47 1007.65,-796.339 1031.82,-767 1064.53,-727.301 1032.73,-694.616 1067.82,-657 1151.61,-567.174 1221.53,-620.892 1323.9,-553 1342.76,-540.494 1341.47,-530.133 1359.9,-517 1385.42,-498.807 1416.82,-483.235 1442.76,-471.897"/>
<polygon fill="black" stroke="black" points="1444.23,-475.072 1452.04,-467.914 1441.47,-468.639 1444.23,-475.072"/>
</g>
<!-- ddlx_create(regclass)&#45;&gt;ddlx_alter_table_defaults(regclass) -->
<g id="edge32" class="edge"><title>ddlx_create(regclass)&#45;&gt;ddlx_alter_table_defaults(regclass)</title>
<path fill="none" stroke="black" d="M900.372,-862.007C918.606,-908.452 974.408,-1031.95 1067.82,-1079 1299.5,-1195.7 1625.36,-1090.23 1749.3,-1042.05"/>
<polygon fill="black" stroke="black" points="1750.89,-1045.18 1758.91,-1038.27 1748.33,-1038.67 1750.89,-1045.18"/>
</g>
<!-- ddlx_create(regclass)&#45;&gt;ddlx_create_class(regclass) -->
<g id="edge33" class="edge"><title>ddlx_create(regclass)&#45;&gt;ddlx_create_class(regclass)</title>
<path fill="none" stroke="black" d="M973.024,-837.536C1002.75,-835.135 1036.84,-832.411 1067.82,-830 1176.01,-821.582 1299.71,-812.323 1385.76,-805.94"/>
<polygon fill="black" stroke="black" points="1386.09,-809.425 1395.8,-805.196 1385.57,-802.445 1386.09,-809.425"/>
</g>
<!-- ddlx_create(regclass)&#45;&gt;ddlx_create_constraints(regclass) -->
<g id="edge34" class="edge"><title>ddlx_create(regclass)&#45;&gt;ddlx_create_constraints(regclass)</title>
<path fill="none" stroke="black" d="M905.438,-862.045C930.441,-899.017 992.931,-983.391 1067.82,-1025 1075.85,-1029.46 1084.55,-1033.19 1093.49,-1036.3"/>
<polygon fill="black" stroke="black" points="1092.68,-1039.72 1103.28,-1039.44 1094.82,-1033.05 1092.68,-1039.72"/>
</g>
<!-- ddlx_create(regclass)&#45;&gt;ddlx_create_indexes(regclass) -->
<g id="edge35" class="edge"><title>ddlx_create(regclass)&#45;&gt;ddlx_create_indexes(regclass)</title>
<path fill="none" stroke="black" d="M912.383,-861.828C942.529,-889.608 1004.96,-942.941 1067.82,-971 1078.44,-975.739 1089.93,-979.664 1101.52,-982.912"/>
<polygon fill="black" stroke="black" points="1100.69,-986.314 1111.26,-985.483 1102.48,-979.546 1100.69,-986.314"/>
</g>
<!-- ddlx_create(regclass)&#45;&gt;ddlx_create(regtype) -->
<g id="edge36" class="edge"><title>ddlx_create(regclass)&#45;&gt;ddlx_create(regtype)</title>
<path fill="none" stroke="black" d="M918.889,-826.688C969.008,-796.755 1082.06,-736.303 1146.84,-704.413"/>
<polygon fill="black" stroke="black" points="1148.59,-707.456 1156.04,-699.922 1145.52,-701.166 1148.59,-707.456"/>
</g>
<!-- ddlx_create_rules(regclass) -->
<g id="node30" class="node"><title>ddlx_create_rules(regclass)</title>
<ellipse fill="none" stroke="black" cx="1195.86" cy="-944" rx="107.482" ry="18"/>
<text text-anchor="middle" x="1195.86" y="-940.3" font-family="Times,serif" font-size="14.00">ddlx_create_rules(regclass)</text>
</g>
<!-- ddlx_create(regclass)&#45;&gt;ddlx_create_rules(regclass) -->
<g id="edge37" class="edge"><title>ddlx_create(regclass)&#45;&gt;ddlx_create_rules(regclass)</title>
<path fill="none" stroke="black" d="M927.703,-860.492C962.285,-876.741 1017.78,-901.342 1067.82,-917 1081.81,-921.377 1096.88,-925.271 1111.59,-928.647"/>
<polygon fill="black" stroke="black" points="1111.17,-932.14 1121.7,-930.9 1112.7,-925.307 1111.17,-932.14"/>
</g>
<!-- ddlx_create_triggers(regclass) -->
<g id="node31" class="node"><title>ddlx_create_triggers(regclass)</title>
<ellipse fill="none" stroke="black" cx="1195.86" cy="-890" rx="116.979" ry="18"/>
<text text-anchor="middle" x="1195.86" y="-886.3" font-family="Times,serif" font-size="14.00">ddlx_create_triggers(regclass)</text>
</g>
<!-- ddlx_create(regclass)&#45;&gt;ddlx_create_triggers(regclass) -->
<g id="edge38" class="edge"><title>ddlx_create(regclass)&#45;&gt;ddlx_create_triggers(regclass)</title>
<path fill="none" stroke="black" d="M962.441,-854.496C1003.83,-860.819 1057.09,-868.954 1102.17,-875.841"/>
<polygon fill="black" stroke="black" points="1101.84,-879.331 1112.25,-877.381 1102.9,-872.411 1101.84,-879.331"/>
</g>
<!-- ddlx_grants(regclass) -->
<g id="node32" class="node"><title>ddlx_grants(regclass)</title>
<ellipse fill="none" stroke="black" cx="1800.81" cy="-856" rx="86.3847" ry="18"/>
<text text-anchor="middle" x="1800.81" y="-852.3" font-family="Times,serif" font-size="14.00">ddlx_grants(regclass)</text>
</g>
<!-- ddlx_create(regclass)&#45;&gt;ddlx_grants(regclass) -->
<g id="edge39" class="edge"><title>ddlx_create(regclass)&#45;&gt;ddlx_grants(regclass)</title>
<path fill="none" stroke="black" d="M978.568,-845.124C1147.85,-847.365 1526.52,-852.381 1704.25,-854.734"/>
<polygon fill="black" stroke="black" points="1704.33,-858.236 1714.37,-854.868 1704.42,-851.236 1704.33,-858.236"/>
</g>
<!-- ddlx_create(regnamespace)&#45;&gt;ddlx_alter_owner(oid) -->
<g id="edge40" class="edge"><title>ddlx_create(regnamespace)&#45;&gt;ddlx_alter_owner(oid)</title>
<path fill="none" stroke="black" d="M1296.03,-465.312C1329.3,-463.069 1366.28,-460.575 1399.16,-458.357"/>
<polygon fill="black" stroke="black" points="1399.49,-461.844 1409.23,-457.679 1399.02,-454.859 1399.49,-461.844"/>
</g>
<!-- ddlx_create(regnamespace)&#45;&gt;ddlx_comment(oid) -->
<g id="edge41" class="edge"><title>ddlx_create(regnamespace)&#45;&gt;ddlx_comment(oid)</title>
<path fill="none" stroke="black" d="M1273.83,-459.487C1290.6,-455.702 1308.06,-450.93 1323.9,-445 1341.04,-438.582 1342.18,-429.591 1359.9,-425 1417.78,-410.001 1579.83,-390.941 1628.97,-425 1666.43,-450.955 1630.26,-491.476 1664.97,-521 1677.7,-531.824 1693.54,-538.748 1709.85,-543.095"/>
<polygon fill="black" stroke="black" points="1709.5,-546.609 1720.04,-545.481 1711.1,-539.793 1709.5,-546.609"/>
</g>
<!-- ddlx_create(regoper)&#45;&gt;ddlx_alter_owner(oid) -->
<g id="edge42" class="edge"><title>ddlx_create(regoper)&#45;&gt;ddlx_alter_owner(oid)</title>
<path fill="none" stroke="black" d="M1261.76,-514.622C1281.88,-510.452 1303.99,-505.206 1323.9,-499 1340.45,-493.843 1343.42,-489.37 1359.9,-484 1379.48,-477.618 1401.06,-471.899 1421.05,-467.122"/>
<polygon fill="black" stroke="black" points="1422.1,-470.473 1431.03,-464.783 1420.5,-463.658 1422.1,-470.473"/>
</g>
<!-- ddlx_create(regoper)&#45;&gt;ddlx_comment(oid) -->
<g id="edge43" class="edge"><title>ddlx_create(regoper)&#45;&gt;ddlx_comment(oid)</title>
<path fill="none" stroke="black" d="M1274.31,-519.248C1360.93,-512.892 1505.29,-505.869 1628.97,-517 1663.79,-520.133 1702.11,-526.787 1733.62,-533.131"/>
<polygon fill="black" stroke="black" points="1733.1,-536.597 1743.6,-535.174 1734.51,-529.739 1733.1,-536.597"/>
</g>
<!-- ddlx_create(regoperator)&#45;&gt;ddlx_create(regoper) -->
<g id="edge44" class="edge"><title>ddlx_create(regoperator)&#45;&gt;ddlx_create(regoper)</title>
<path fill="none" stroke="black" d="M988.186,-535.609C1024.76,-533.908 1066.49,-531.968 1102.84,-530.278"/>
<polygon fill="black" stroke="black" points="1103.11,-533.77 1112.94,-529.809 1102.78,-526.777 1103.11,-533.77"/>
</g>
<!-- ddlx_create(regproc)&#45;&gt;ddlx_alter_owner(oid) -->
<g id="edge45" class="edge"><title>ddlx_create(regproc)&#45;&gt;ddlx_alter_owner(oid)</title>
<path fill="none" stroke="black" d="M1274.01,-316.991C1291.4,-321.049 1309.07,-327.328 1323.9,-337 1346.83,-351.963 1338.95,-369.362 1359.9,-387 1383.09,-406.525 1413.14,-421.825 1438.86,-432.663"/>
<polygon fill="black" stroke="black" points="1437.54,-435.904 1448.12,-436.454 1440.19,-429.426 1437.54,-435.904"/>
</g>
<!-- ddlx_create(regproc)&#45;&gt;ddlx_create_function(regproc) -->
<g id="edge46" class="edge"><title>ddlx_create(regproc)&#45;&gt;ddlx_create_function(regproc)</title>
<path fill="none" stroke="black" d="M1262.68,-321.097C1304.41,-328.133 1358.93,-337.323 1404.49,-345.004"/>
<polygon fill="black" stroke="black" points="1403.92,-348.458 1414.36,-346.669 1405.09,-341.555 1403.92,-348.458"/>
</g>
<!-- ddlx_grants(regproc) -->
<g id="node33" class="node"><title>ddlx_grants(regproc)</title>
<ellipse fill="none" stroke="black" cx="1800.81" cy="-310" rx="85.2851" ry="18"/>
<text text-anchor="middle" x="1800.81" y="-306.3" font-family="Times,serif" font-size="14.00">ddlx_grants(regproc)</text>
</g>
<!-- ddlx_create(regproc)&#45;&gt;ddlx_grants(regproc) -->
<g id="edge47" class="edge"><title>ddlx_create(regproc)&#45;&gt;ddlx_grants(regproc)</title>
<path fill="none" stroke="black" d="M1280.38,-310C1391.8,-310 1588.54,-310 1705.27,-310"/>
<polygon fill="black" stroke="black" points="1705.62,-313.5 1715.62,-310 1705.62,-306.5 1705.62,-313.5"/>
</g>
<!-- ddlx_create(regprocedure)&#45;&gt;ddlx_create(regproc) -->
<g id="edge48" class="edge"><title>ddlx_create(regprocedure)&#45;&gt;ddlx_create(regproc)</title>
<path fill="none" stroke="black" d="M971.281,-344.154C1016,-337.323 1072.05,-328.761 1116.84,-321.918"/>
<polygon fill="black" stroke="black" points="1117.44,-325.367 1126.8,-320.397 1116.39,-318.447 1117.44,-325.367"/>
</g>
<!-- ddlx_create_role(regrole) -->
<g id="node34" class="node"><title>ddlx_create_role(regrole)</title>
<ellipse fill="none" stroke="black" cx="1195.86" cy="-418" rx="100.983" ry="18"/>
<text text-anchor="middle" x="1195.86" y="-414.3" font-family="Times,serif" font-size="14.00">ddlx_create_role(regrole)</text>
</g>
<!-- ddlx_create(regrole)&#45;&gt;ddlx_create_role(regrole) -->
<g id="edge49" class="edge"><title>ddlx_create(regrole)&#45;&gt;ddlx_create_role(regrole)</title>
<path fill="none" stroke="black" d="M974.826,-412.154C1008.98,-413.062 1049.24,-414.131 1085.93,-415.106"/>
<polygon fill="black" stroke="black" points="1086.08,-418.611 1096.17,-415.378 1086.27,-411.614 1086.08,-418.611"/>
</g>
<!-- ddlx_grants(regrole) -->
<g id="node35" class="node"><title>ddlx_grants(regrole)</title>
<ellipse fill="none" stroke="black" cx="1195.86" cy="-364" rx="83.3857" ry="18"/>
<text text-anchor="middle" x="1195.86" y="-360.3" font-family="Times,serif" font-size="14.00">ddlx_grants(regrole)</text>
</g>
<!-- ddlx_create(regrole)&#45;&gt;ddlx_grants(regrole) -->
<g id="edge50" class="edge"><title>ddlx_create(regrole)&#45;&gt;ddlx_grants(regrole)</title>
<path fill="none" stroke="black" d="M960.937,-399.734C1007.22,-392.664 1068.85,-383.25 1117.23,-375.859"/>
<polygon fill="black" stroke="black" points="1117.98,-379.284 1127.34,-374.314 1116.93,-372.364 1117.98,-379.284"/>
</g>
<!-- ddlx_create(regtype)&#45;&gt;ddlx_alter_owner(oid) -->
<g id="edge51" class="edge"><title>ddlx_create(regtype)&#45;&gt;ddlx_alter_owner(oid)</title>
<path fill="none" stroke="black" d="M1237.12,-668.219C1264.79,-655.581 1300.6,-635.422 1323.9,-608 1352.06,-574.851 1330.34,-548.905 1359.9,-517 1379.55,-495.784 1407.62,-480.681 1432.96,-470.407"/>
<polygon fill="black" stroke="black" points="1434.45,-473.582 1442.51,-466.703 1431.92,-467.055 1434.45,-473.582"/>
</g>
<!-- ddlx_create(regtype)&#45;&gt;ddlx_comment(oid) -->
<g id="edge52" class="edge"><title>ddlx_create(regtype)&#45;&gt;ddlx_comment(oid)</title>
<path fill="none" stroke="black" d="M1237.32,-699.768C1269.86,-711.565 1317.06,-726.702 1359.9,-733 1478.22,-750.395 1535.49,-807.58 1628.97,-733 1685.28,-688.084 1613.38,-625.251 1664.97,-575 1677.2,-563.095 1693.11,-555.732 1709.69,-551.305"/>
<polygon fill="black" stroke="black" points="1710.56,-554.696 1719.51,-549.024 1708.98,-547.877 1710.56,-554.696"/>
</g>
<!-- ddlx_create(regtype)&#45;&gt;ddlx_create_class(regclass) -->
<g id="edge53" class="edge"><title>ddlx_create(regtype)&#45;&gt;ddlx_create_class(regclass)</title>
<path fill="none" stroke="black" d="M1225.41,-700.911C1257.26,-719.17 1310.8,-748.044 1359.9,-766 1377,-772.252 1395.77,-777.622 1413.71,-782.079"/>
<polygon fill="black" stroke="black" points="1413.03,-785.515 1423.57,-784.461 1414.67,-778.711 1413.03,-785.515"/>
</g>
<!-- ddlx_create(regtype)&#45;&gt;ddlx_create(regclass) -->
<g id="edge54" class="edge"><title>ddlx_create(regtype)&#45;&gt;ddlx_create(regclass)</title>
<path fill="none" stroke="black" d="M1169.91,-701.191C1119.96,-731.043 1006.92,-791.495 942.007,-823.461"/>
<polygon fill="black" stroke="black" points="940.24,-820.429 932.792,-827.964 943.313,-826.718 940.24,-820.429"/>
</g>
<!-- ddlx_create_type_base(regtype) -->
<g id="node36" class="node"><title>ddlx_create_type_base(regtype)</title>
<ellipse fill="none" stroke="black" cx="1494.44" cy="-598" rx="123.478" ry="18"/>
<text text-anchor="middle" x="1494.44" y="-594.3" font-family="Times,serif" font-size="14.00">ddlx_create_type_base(regtype)</text>
</g>
<!-- ddlx_create(regtype)&#45;&gt;ddlx_create_type_base(regtype) -->
<g id="edge55" class="edge"><title>ddlx_create(regtype)&#45;&gt;ddlx_create_type_base(regtype)</title>
<path fill="none" stroke="black" d="M1235.86,-668.041C1268.57,-655.109 1316.71,-637.108 1359.9,-625 1374.38,-620.94 1389.9,-617.232 1405.06,-613.951"/>
<polygon fill="black" stroke="black" points="1405.89,-617.352 1414.95,-611.857 1404.44,-610.504 1405.89,-617.352"/>
</g>
<!-- ddlx_create_type_domain(regtype) -->
<g id="node37" class="node"><title>ddlx_create_type_domain(regtype)</title>
<ellipse fill="none" stroke="black" cx="1494.44" cy="-544" rx="134.576" ry="18"/>
<text text-anchor="middle" x="1494.44" y="-540.3" font-family="Times,serif" font-size="14.00">ddlx_create_type_domain(regtype)</text>
</g>
<!-- ddlx_create(regtype)&#45;&gt;ddlx_create_type_domain(regtype) -->
<g id="edge56" class="edge"><title>ddlx_create(regtype)&#45;&gt;ddlx_create_type_domain(regtype)</title>
<path fill="none" stroke="black" d="M1229.68,-667.431C1256.27,-653.309 1294.06,-631.594 1323.9,-608 1341.9,-593.768 1339.76,-581.986 1359.9,-571 1368.3,-566.419 1377.38,-562.612 1386.71,-559.448"/>
<polygon fill="black" stroke="black" points="1388.02,-562.707 1396.51,-556.378 1385.92,-556.027 1388.02,-562.707"/>
</g>
<!-- ddlx_create_type_enum(regtype) -->
<g id="node38" class="node"><title>ddlx_create_type_enum(regtype)</title>
<ellipse fill="none" stroke="black" cx="1494.44" cy="-706" rx="128.077" ry="18"/>
<text text-anchor="middle" x="1494.44" y="-702.3" font-family="Times,serif" font-size="14.00">ddlx_create_type_enum(regtype)</text>
</g>
<!-- ddlx_create(regtype)&#45;&gt;ddlx_create_type_enum(regtype) -->
<g id="edge57" class="edge"><title>ddlx_create(regtype)&#45;&gt;ddlx_create_type_enum(regtype)</title>
<path fill="none" stroke="black" d="M1275.56,-689.838C1304.67,-691.997 1338.41,-694.5 1370.51,-696.882"/>
<polygon fill="black" stroke="black" points="1370.64,-700.4 1380.87,-697.65 1371.16,-693.42 1370.64,-700.4"/>
</g>
<!-- ddlx_create_type_range(regtype) -->
<g id="node39" class="node"><title>ddlx_create_type_range(regtype)</title>
<ellipse fill="none" stroke="black" cx="1494.44" cy="-652" rx="127.277" ry="18"/>
<text text-anchor="middle" x="1494.44" y="-648.3" font-family="Times,serif" font-size="14.00">ddlx_create_type_range(regtype)</text>
</g>
<!-- ddlx_create(regtype)&#45;&gt;ddlx_create_type_range(regtype) -->
<g id="edge58" class="edge"><title>ddlx_create(regtype)&#45;&gt;ddlx_create_type_range(regtype)</title>
<path fill="none" stroke="black" d="M1271.32,-675.966C1304.88,-672.345 1345.22,-667.992 1382.26,-663.996"/>
<polygon fill="black" stroke="black" points="1383.04,-667.432 1392.61,-662.879 1382.29,-660.472 1383.04,-667.432"/>
</g>
<!-- ddlx_get_rules(regclass) -->
<g id="node40" class="node"><title>ddlx_get_rules(regclass)</title>
<ellipse fill="none" stroke="black" cx="1494.44" cy="-944" rx="96.6831" ry="18"/>
<text text-anchor="middle" x="1494.44" y="-940.3" font-family="Times,serif" font-size="14.00">ddlx_get_rules(regclass)</text>
</g>
<!-- ddlx_create_rules(regclass)&#45;&gt;ddlx_get_rules(regclass) -->
<g id="edge59" class="edge"><title>ddlx_create_rules(regclass)&#45;&gt;ddlx_get_rules(regclass)</title>
<path fill="none" stroke="black" d="M1303.51,-944C1330.75,-944 1360.04,-944 1387.25,-944"/>
<polygon fill="black" stroke="black" points="1387.58,-947.5 1397.58,-944 1387.58,-940.5 1387.58,-947.5"/>
</g>
<!-- ddlx_get_triggers(regclass) -->
<g id="node41" class="node"><title>ddlx_get_triggers(regclass)</title>
<ellipse fill="none" stroke="black" cx="1494.44" cy="-890" rx="106.681" ry="18"/>
<text text-anchor="middle" x="1494.44" y="-886.3" font-family="Times,serif" font-size="14.00">ddlx_get_triggers(regclass)</text>
</g>
<!-- ddlx_create_triggers(regclass)&#45;&gt;ddlx_get_triggers(regclass) -->
<g id="edge63" class="edge"><title>ddlx_create_triggers(regclass)&#45;&gt;ddlx_get_triggers(regclass)</title>
<path fill="none" stroke="black" d="M1313.22,-890C1334.28,-890 1356.24,-890 1377.29,-890"/>
<polygon fill="black" stroke="black" points="1377.55,-893.5 1387.55,-890 1377.55,-886.5 1377.55,-893.5"/>
</g>
<!-- ddlx_grants(regclass)&#45;&gt;ddlx_identify(oid) -->
<g id="edge69" class="edge"><title>ddlx_grants(regclass)&#45;&gt;ddlx_identify(oid)</title>
<path fill="none" stroke="black" d="M1886.08,-852.896C1904.45,-848.689 1922.57,-841.367 1936.65,-829 2044,-734.714 2062.31,-547.845 2065.34,-476.55"/>
<polygon fill="black" stroke="black" points="2068.85,-476.248 2065.7,-466.132 2061.85,-476.003 2068.85,-476.248"/>
</g>
<!-- ddlx_grants(regproc)&#45;&gt;ddlx_identify(oid) -->
<g id="edge70" class="edge"><title>ddlx_grants(regproc)&#45;&gt;ddlx_identify(oid)</title>
<path fill="none" stroke="black" d="M1877.16,-318.073C1897.17,-322.073 1918.3,-328.055 1936.65,-337 1979.78,-358.026 2020.14,-396.975 2043.93,-422.69"/>
<polygon fill="black" stroke="black" points="2041.45,-425.165 2050.76,-430.212 2046.63,-420.457 2041.45,-425.165"/>
</g>
<!-- ddlx_drop(oid) -->
<g id="node42" class="node"><title>ddlx_drop(oid)</title>
<ellipse fill="none" stroke="black" cx="614.955" cy="-137" rx="63.8893" ry="18"/>
<text text-anchor="middle" x="614.955" y="-133.3" font-family="Times,serif" font-size="14.00">ddlx_drop(oid)</text>
</g>
<!-- ddlx_drop(oid)&#45;&gt;ddlx_identify(oid) -->
<g id="edge67" class="edge"><title>ddlx_drop(oid)&#45;&gt;ddlx_identify(oid)</title>
<path fill="none" stroke="black" d="M647.029,-121.375C674.351,-108.483 715.586,-91.0482 753.646,-83 945.676,-42.3927 998.583,-64 1194.86,-64 1194.86,-64 1194.86,-64 1495.44,-64 1705.58,-64 1775.6,-99.0006 1936.65,-234 1998.65,-285.973 2038.88,-375.718 2056.18,-420.673"/>
<polygon fill="black" stroke="black" points="2052.91,-421.939 2059.71,-430.069 2059.47,-419.477 2052.91,-421.939"/>
</g>
<!-- ddlx_drop_constraint(oid) -->
<g id="node43" class="node"><title>ddlx_drop_constraint(oid)</title>
<ellipse fill="none" stroke="black" cx="892.734" cy="-110" rx="102.882" ry="18"/>
<text text-anchor="middle" x="892.734" y="-106.3" font-family="Times,serif" font-size="14.00">ddlx_drop_constraint(oid)</text>
</g>
<!-- ddlx_drop(oid)&#45;&gt;ddlx_drop_constraint(oid) -->
<g id="edge64" class="edge"><title>ddlx_drop(oid)&#45;&gt;ddlx_drop_constraint(oid)</title>
<path fill="none" stroke="black" d="M675.455,-131.175C709.613,-127.83 753.381,-123.545 792.598,-119.706"/>
<polygon fill="black" stroke="black" points="793.115,-123.172 802.726,-118.714 792.433,-116.205 793.115,-123.172"/>
</g>
<!-- ddlx_drop_default(oid) -->
<g id="node44" class="node"><title>ddlx_drop_default(oid)</title>
<ellipse fill="none" stroke="black" cx="892.734" cy="-218" rx="92.8835" ry="18"/>
<text text-anchor="middle" x="892.734" y="-214.3" font-family="Times,serif" font-size="14.00">ddlx_drop_default(oid)</text>
</g>
<!-- ddlx_drop(oid)&#45;&gt;ddlx_drop_default(oid) -->
<g id="edge65" class="edge"><title>ddlx_drop(oid)&#45;&gt;ddlx_drop_default(oid)</title>
<path fill="none" stroke="black" d="M649.594,-152.17C677.113,-164.096 717.283,-180.409 753.646,-191 771.836,-196.298 791.679,-200.864 810.504,-204.656"/>
<polygon fill="black" stroke="black" points="810.053,-208.134 820.54,-206.624 811.401,-201.265 810.053,-208.134"/>
</g>
<!-- ddlx_drop_trigger(oid) -->
<g id="node45" class="node"><title>ddlx_drop_trigger(oid)</title>
<ellipse fill="none" stroke="black" cx="892.734" cy="-164" rx="91.784" ry="18"/>
<text text-anchor="middle" x="892.734" y="-160.3" font-family="Times,serif" font-size="14.00">ddlx_drop_trigger(oid)</text>
</g>
<!-- ddlx_drop(oid)&#45;&gt;ddlx_drop_trigger(oid) -->
<g id="edge66" class="edge"><title>ddlx_drop(oid)&#45;&gt;ddlx_drop_trigger(oid)</title>
<path fill="none" stroke="black" d="M675.455,-142.825C711.879,-146.391 759.231,-151.027 800.339,-155.052"/>
<polygon fill="black" stroke="black" points="800.076,-158.543 810.37,-156.034 800.759,-151.576 800.076,-158.543"/>
</g>
<!-- ddlx_get_dependants(oid) -->
<g id="node46" class="node"><title>ddlx_get_dependants(oid)</title>
<ellipse fill="none" stroke="black" cx="614.955" cy="-64" rx="102.882" ry="18"/>
<text text-anchor="middle" x="614.955" y="-60.3" font-family="Times,serif" font-size="14.00">ddlx_get_dependants(oid)</text>
</g>
<!-- ddlx_get_dependants_recursive(oid) -->
<g id="node47" class="node"><title>ddlx_get_dependants_recursive(oid)</title>
<ellipse fill="none" stroke="black" cx="892.734" cy="-18" rx="139.175" ry="18"/>
<text text-anchor="middle" x="892.734" y="-14.3" font-family="Times,serif" font-size="14.00">ddlx_get_dependants_recursive(oid)</text>
</g>
<!-- ddlx_get_dependants(oid)&#45;&gt;ddlx_get_dependants_recursive(oid) -->
<g id="edge68" class="edge"><title>ddlx_get_dependants(oid)&#45;&gt;ddlx_get_dependants_recursive(oid)</title>
<path fill="none" stroke="black" d="M689.859,-51.6728C722.532,-46.2229 761.364,-39.7458 796.201,-33.9349"/>
<polygon fill="black" stroke="black" points="797.103,-37.3329 806.391,-32.2352 795.951,-30.4283 797.103,-37.3329"/>
</g>
<!-- ddlx_parts(oid) -->
<g id="node48" class="node"><title>ddlx_parts(oid)</title>
<ellipse fill="none" stroke="black" cx="411.27" cy="-137" rx="64.9885" ry="18"/>
<text text-anchor="middle" x="411.27" y="-133.3" font-family="Times,serif" font-size="14.00">ddlx_parts(oid)</text>
</g>
<!-- ddlx_parts(oid)&#45;&gt;ddlx_create(oid) -->
<g id="edge71" class="edge"><title>ddlx_parts(oid)&#45;&gt;ddlx_create(oid)</title>
<path fill="none" stroke="black" d="M422.549,-155.194C455.592,-213.684 559.225,-397.124 598.584,-466.792"/>
<polygon fill="black" stroke="black" points="595.731,-468.857 603.697,-475.842 601.825,-465.414 595.731,-468.857"/>
</g>
<!-- ddlx_parts(oid)&#45;&gt;ddlx_drop(oid) -->
<g id="edge72" class="edge"><title>ddlx_parts(oid)&#45;&gt;ddlx_drop(oid)</title>
<path fill="none" stroke="black" d="M476.361,-137C496.88,-137 519.75,-137 540.861,-137"/>
<polygon fill="black" stroke="black" points="541.066,-140.5 551.066,-137 541.066,-133.5 541.066,-140.5"/>
</g>
<!-- ddlx_parts(oid)&#45;&gt;ddlx_get_dependants(oid) -->
<g id="edge73" class="edge"><title>ddlx_parts(oid)&#45;&gt;ddlx_get_dependants(oid)</title>
<path fill="none" stroke="black" d="M451.636,-122.752C482.311,-111.649 525.259,-96.1037 559.272,-83.7924"/>
<polygon fill="black" stroke="black" points="560.852,-86.9431 569.063,-80.2485 558.469,-80.361 560.852,-86.9431"/>
</g>
<!-- ddlx_script(oid) -->
<g id="node49" class="node"><title>ddlx_script(oid)</title>
<ellipse fill="none" stroke="black" cx="242.682" cy="-137" rx="67.6881" ry="18"/>
<text text-anchor="middle" x="242.682" y="-133.3" font-family="Times,serif" font-size="14.00">ddlx_script(oid)</text>
</g>
<!-- ddlx_script(oid)&#45;&gt;ddlx_parts(oid) -->
<g id="edge74" class="edge"><title>ddlx_script(oid)&#45;&gt;ddlx_parts(oid)</title>
<path fill="none" stroke="black" d="M310.48,-137C318.846,-137 327.443,-137 335.915,-137"/>
<polygon fill="black" stroke="black" points="336.164,-140.5 346.164,-137 336.164,-133.5 336.164,-140.5"/>
</g>
<!-- ddlx_script(text) -->
<g id="node50" class="node"><title>ddlx_script(text)</title>
<ellipse fill="none" stroke="black" cx="69.5438" cy="-137" rx="69.5877" ry="18"/>
<text text-anchor="middle" x="69.5438" y="-133.3" font-family="Times,serif" font-size="14.00">ddlx_script(text)</text>
</g>
<!-- ddlx_script(text)&#45;&gt;ddlx_script(oid) -->
<g id="edge75" class="edge"><title>ddlx_script(text)&#45;&gt;ddlx_script(oid)</title>
<path fill="none" stroke="black" d="M139.166,-137C147.654,-137 156.375,-137 164.974,-137"/>
<polygon fill="black" stroke="black" points="164.993,-140.5 174.993,-137 164.993,-133.5 164.993,-140.5"/>
</g>
</g>
</svg>
